<svg version="1.1" id="Layer_1" xmlns="http://www.w3.org/2000/svg" xmlns:xlink="http://www.w3.org/1999/xlink" x="0px" y="0px"
	 width="100%" viewBox="0 0 500 500" enable-background="new 0 0 500 500" xml:space="preserve">
<path fill="#FFFFFF" opacity="1.000000" stroke="none" 
	d="
M232.000000,501.000000 
	C154.666687,501.000000 77.833366,501.000000 1.000041,501.000000 
	C1.000027,334.333405 1.000027,167.666779 1.000014,1.000131 
	C167.666565,1.000087 334.333130,1.000087 500.999756,1.000044 
	C500.999847,167.666519 500.999847,334.333038 500.999939,500.999786 
	C411.500000,501.000000 322.000000,501.000000 232.000000,501.000000 
M133.746994,278.754089 
	C148.386902,346.748230 222.845413,388.328552 288.880646,365.882904 
	C344.876709,346.849609 381.486206,288.905121 369.231506,227.192886 
	C353.287811,146.903641 260.476959,105.126724 190.169449,146.972244 
	C147.225266,172.531708 121.029640,223.324280 133.746994,278.754089 
z"/>
<path fill="#22BFC2" opacity="1.000000" stroke="none" 
	d="
M133.619843,278.355957 
	C121.029640,223.324280 147.225266,172.531708 190.169449,146.972244 
	C260.476959,105.126724 353.287811,146.903641 369.231506,227.192886 
	C381.486206,288.905121 344.876709,346.849609 288.880646,365.882904 
	C222.845413,388.328552 148.386902,346.748230 133.619843,278.355957 
M319.330292,297.826233 
	C321.250122,294.151428 323.557465,290.624115 325.021698,286.775940 
	C330.906250,271.310944 328.434265,256.063965 323.580780,240.841522 
	C321.944519,235.709610 321.254944,230.281525 319.972656,225.027863 
	C319.552765,223.307434 319.088226,220.920898 317.850403,220.197937 
	C313.257172,217.515182 312.400146,212.867722 311.024139,208.547913 
	C308.552887,200.789856 306.588104,192.868515 304.045410,185.135849 
	C302.219421,179.582657 297.283203,178.031601 293.205261,182.096680 
	C290.712799,184.581284 288.786407,188.463486 288.328644,191.944550 
	C287.785065,196.077988 288.598663,200.587357 289.704834,204.696716 
	C291.646820,211.910919 294.274109,218.939804 296.583282,226.056396 
	C297.574432,229.110931 297.694580,231.985855 294.538849,233.993515 
	C291.559662,235.888901 289.184906,234.627731 286.928314,232.573471 
	C281.630402,227.750534 276.508667,222.708618 270.959106,218.193497 
	C262.927277,211.658768 256.544800,204.071396 252.911392,194.241714 
	C251.591766,190.671661 249.784332,187.249435 247.903885,183.927063 
	C245.345810,179.407425 240.123077,176.710251 236.125778,179.206894 
	C230.636368,182.635483 228.076538,179.245392 224.845657,176.343124 
	C223.978378,175.564026 223.186447,174.697784 222.293259,173.951340 
	C217.555161,169.991562 211.292145,171.178146 208.357574,176.585815 
	C206.506042,179.997726 204.686768,183.427139 202.749039,187.042725 
	C201.333710,185.807999 200.363022,184.898102 199.327728,184.068878 
	C194.654404,180.325745 189.865143,180.404678 186.433884,184.253174 
	C182.760040,188.373749 183.175842,193.299667 187.575653,197.468063 
	C189.452759,199.246429 191.369308,200.983200 193.874527,203.299789 
	C190.936462,205.213028 188.877899,207.210129 186.426041,208.027466 
	C178.964172,210.514984 176.814957,218.090256 182.352432,223.685501 
	C185.009644,226.370407 187.889450,228.834976 190.905838,231.618393 
	C178.115707,233.044769 174.617920,239.489227 180.057159,250.823395 
	C189.771698,271.066345 199.377594,291.363556 209.335297,311.486481 
	C212.343658,317.565918 215.784698,323.615417 220.042343,328.853821 
	C228.628189,339.417358 239.031433,347.744781 253.314362,348.901215 
	C277.811249,350.884644 301.882874,335.581604 311.254669,312.763916 
	C313.302582,307.777863 316.363525,303.207886 319.330292,297.826233 
M252.748932,177.227509 
	C256.523865,176.218369 257.251892,173.948013 255.829468,170.454575 
	C253.771530,165.400360 251.927002,160.259216 249.991684,155.155075 
	C248.906540,152.293228 247.156647,151.408173 244.161179,152.707489 
	C241.344604,153.929199 240.341431,155.576721 241.494888,158.531693 
	C243.600128,163.924973 245.407364,169.445480 247.770401,174.719589 
	C248.359924,176.035355 250.594742,176.613968 252.748932,177.227509 
M266.931274,173.799835 
	C269.792694,174.410248 271.874451,173.626755 272.543640,170.530792 
	C273.801331,164.712112 275.020264,158.885010 276.242798,153.058777 
	C276.846252,150.182892 275.495056,148.732071 272.762024,148.143890 
	C269.822052,147.511185 267.886719,148.364304 267.248230,151.458725 
	C266.045013,157.290237 264.636292,163.092957 263.802032,168.977005 
	C263.603485,170.377548 265.333740,172.051559 266.931274,173.799835 
M298.024780,169.465500 
	C295.577454,164.094971 293.775330,162.975174 290.646790,165.488907 
	C285.734192,169.436157 280.955322,173.592712 276.530365,178.066666 
	C275.678528,178.927917 276.060913,182.242722 277.062500,183.362167 
	C278.092285,184.513138 281.403412,185.356277 282.289551,184.619125 
	C287.741058,180.084152 292.788727,175.063629 298.024780,169.465500 
M201.393967,306.052094 
	C202.782318,302.395782 200.242554,300.858704 197.592865,300.616241 
	C196.086456,300.478394 193.588013,302.102142 192.916245,303.565857 
	C190.573532,308.670502 188.969391,314.108063 186.813416,319.306610 
	C185.426041,322.651978 186.772125,324.129395 189.693481,325.381439 
	C192.844589,326.731995 194.336288,325.435791 195.340225,322.641083 
	C197.243958,317.341522 199.200058,312.060791 201.393967,306.052094 
M174.219070,308.806610 
	C177.788681,306.085358 181.313110,303.301941 184.943207,300.663971 
	C187.504044,298.803040 187.740051,296.853516 185.878937,294.338715 
	C184.050415,291.867950 182.084717,291.309814 179.558212,293.251221 
	C174.944366,296.796509 170.319550,300.327698 165.677139,303.835419 
	C163.346970,305.596069 163.216827,307.472046 164.942703,309.799774 
	C166.738251,312.221497 168.669220,313.015381 171.240524,311.042419 
	C172.031784,310.435303 172.817902,309.821533 174.219070,308.806610 
M172.500397,276.052338 
	C169.686935,276.075470 166.873215,276.133423 164.060089,276.112457 
	C160.977753,276.089508 158.999802,277.062164 158.952576,280.628143 
	C158.905228,284.203308 160.772614,285.220093 163.933151,285.159058 
	C169.227921,285.056763 174.525894,284.973328 179.820175,285.048248 
	C182.817154,285.090607 185.025299,284.694702 185.051361,280.901276 
	C185.076431,277.251953 183.483978,275.761841 179.928024,275.975220 
	C177.783264,276.103973 175.626312,276.029572 172.500397,276.052338 
z"/>
<path fill="#F92F78" opacity="1.000000" stroke="none" 
	d="
M319.144104,298.136261 
	C316.363525,303.207886 313.302582,307.777863 311.254669,312.763916 
	C301.882874,335.581604 277.811249,350.884644 253.314362,348.901215 
	C239.031433,347.744781 228.628189,339.417358 220.042343,328.853821 
	C215.784698,323.615417 212.343658,317.565918 209.335297,311.486481 
	C199.377594,291.363556 189.771698,271.066345 180.057159,250.823395 
	C174.617920,239.489227 178.115707,233.044769 190.905838,231.618393 
	C187.889450,228.834976 185.009644,226.370407 182.352432,223.685501 
	C176.814957,218.090256 178.964172,210.514984 186.426041,208.027466 
	C188.877899,207.210129 190.936462,205.213028 193.874527,203.299789 
	C191.369308,200.983200 189.452759,199.246429 187.575653,197.468063 
	C183.175842,193.299667 182.760040,188.373749 186.433884,184.253174 
	C189.865143,180.404678 194.654404,180.325745 199.327728,184.068878 
	C200.363022,184.898102 201.333710,185.807999 202.749039,187.042725 
	C204.686768,183.427139 206.506042,179.997726 208.357574,176.585815 
	C211.292145,171.178146 217.555161,169.991562 222.293259,173.951340 
	C223.186447,174.697784 223.978378,175.564026 224.845657,176.343124 
	C228.076538,179.245392 230.636368,182.635483 236.125778,179.206894 
	C240.123077,176.710251 245.345810,179.407425 247.903885,183.927063 
	C249.784332,187.249435 251.591766,190.671661 252.911392,194.241714 
	C256.544800,204.071396 262.927277,211.658768 270.959106,218.193497 
	C276.508667,222.708618 281.630402,227.750534 286.928314,232.573471 
	C289.184906,234.627731 291.559662,235.888901 294.538849,233.993515 
	C297.694580,231.985855 297.574432,229.110931 296.583282,226.056396 
	C294.274109,218.939804 291.646820,211.910919 289.704834,204.696716 
	C288.598663,200.587357 287.785065,196.077988 288.328644,191.944550 
	C288.786407,188.463486 290.712799,184.581284 293.205261,182.096680 
	C297.283203,178.031601 302.219421,179.582657 304.045410,185.135849 
	C306.588104,192.868515 308.552887,200.789856 311.024139,208.547913 
	C312.400146,212.867722 313.257172,217.515182 317.850403,220.197937 
	C319.088226,220.920898 319.552765,223.307434 319.972656,225.027863 
	C321.254944,230.281525 321.944519,235.709610 323.580780,240.841522 
	C328.434265,256.063965 330.906250,271.310944 325.021698,286.775940 
	C323.557465,290.624115 321.250122,294.151428 319.144104,298.136261 
M247.440323,244.078339 
	C238.461411,225.312881 229.532852,206.523041 220.471741,187.797363 
	C217.882828,182.447098 214.390594,181.057709 210.089767,183.150864 
	C206.341583,184.975067 205.373901,188.737427 207.757523,193.851685 
	C213.592178,206.370377 219.586685,218.814529 225.509811,231.292038 
	C229.719437,240.159943 234.084366,248.961777 237.950409,257.977325 
	C238.567490,259.416382 236.923950,261.824860 236.325500,263.785156 
	C234.354614,263.079193 232.347900,262.454224 230.438370,261.609589 
	C229.968811,261.401855 229.805084,260.482849 229.519531,259.881927 
	C225.019653,250.412949 220.545395,240.931717 216.018051,231.475876 
	C212.496750,224.121292 209.102768,216.696045 205.291260,209.493195 
	C202.274506,203.792236 195.719284,203.336060 193.047379,208.721649 
	C191.993042,210.846786 192.265640,214.388962 193.299011,216.666595 
	C199.486099,230.303497 206.077179,243.756973 212.519836,257.278137 
	C215.168060,262.835968 217.833664,268.386505 220.392181,273.985657 
	C221.556320,276.533295 221.455246,278.820190 218.472046,280.239563 
	C215.616959,281.597961 214.094055,280.092407 212.862595,277.837189 
	C212.224854,276.669220 211.633850,275.474426 211.057190,274.274689 
	C205.794067,263.324890 200.583435,252.349548 195.262009,241.428177 
	C192.662613,236.093323 188.684113,234.340500 184.509094,236.437759 
	C181.005219,238.197891 179.983109,242.438049 182.367401,247.407333 
	C193.310287,270.214081 204.180130,293.059723 215.485519,315.686890 
	C220.542435,325.808075 227.972427,334.175903 237.889755,339.974396 
	C254.382156,349.617218 279.471222,345.393707 295.130554,330.502533 
	C307.208527,319.017090 311.826935,304.284912 312.908112,288.305969 
	C313.750244,275.860352 313.462738,263.342255 314.055695,250.874374 
	C314.426300,243.081650 315.669342,235.333893 316.199951,227.544113 
	C316.583252,221.916824 313.514282,219.916443 308.365387,222.197418 
	C302.833496,224.648056 300.865509,229.813278 300.101318,235.093170 
	C298.794189,244.124084 298.213898,253.261993 297.396606,262.361115 
	C297.057281,266.139038 295.936951,269.265778 291.687775,270.035583 
	C287.162354,270.855408 284.563385,268.558563 282.711914,264.649109 
	C275.873718,250.209915 268.902466,235.833817 262.003052,221.423523 
	C256.541321,210.015869 251.198135,198.550476 245.632309,187.194031 
	C242.685684,181.181778 236.769974,180.038986 233.489990,185.132889 
	C232.114883,187.268463 232.128006,191.334137 233.180283,193.813385 
	C237.272766,203.455521 242.033066,212.814346 246.549515,222.276367 
	C250.779190,231.137573 255.029617,239.988907 259.239105,248.859665 
	C260.607483,251.743271 262.437592,254.889450 258.179565,256.894623 
	C253.766968,258.972595 252.821198,255.058945 251.384491,252.429596 
	C250.031494,249.953415 248.983353,247.310638 247.440323,244.078339 
z"/>
<path fill="#F7D150" opacity="1.000000" stroke="none" 
	d="
M252.411133,177.379456 
	C250.594742,176.613968 248.359924,176.035355 247.770401,174.719589 
	C245.407364,169.445480 243.600128,163.924973 241.494888,158.531693 
	C240.341431,155.576721 241.344604,153.929199 244.161179,152.707489 
	C247.156647,151.408173 248.906540,152.293228 249.991684,155.155075 
	C251.927002,160.259216 253.771530,165.400360 255.829468,170.454575 
	C257.251892,173.948013 256.523865,176.218369 252.411133,177.379456 
z"/>
<path fill="#F6D150" opacity="1.000000" stroke="none" 
	d="
M266.554047,173.699814 
	C265.333740,172.051559 263.603485,170.377548 263.802032,168.977005 
	C264.636292,163.092957 266.045013,157.290237 267.248230,151.458725 
	C267.886719,148.364304 269.822052,147.511185 272.762024,148.143890 
	C275.495056,148.732071 276.846252,150.182892 276.242798,153.058777 
	C275.020264,158.885010 273.801331,164.712112 272.543640,170.530792 
	C271.874451,173.626755 269.792694,174.410248 266.554047,173.699814 
z"/>
<path fill="#F7D150" opacity="1.000000" stroke="none" 
	d="
M297.997772,169.835083 
	C292.788727,175.063629 287.741058,180.084152 282.289551,184.619125 
	C281.403412,185.356277 278.092285,184.513138 277.062500,183.362167 
	C276.060913,182.242722 275.678528,178.927917 276.530365,178.066666 
	C280.955322,173.592712 285.734192,169.436157 290.646790,165.488907 
	C293.775330,162.975174 295.577454,164.094971 297.997772,169.835083 
z"/>
<path fill="#F6D150" opacity="1.000000" stroke="none" 
	d="
M201.264191,306.412170 
	C199.200058,312.060791 197.243958,317.341522 195.340225,322.641083 
	C194.336288,325.435791 192.844589,326.731995 189.693481,325.381439 
	C186.772125,324.129395 185.426041,322.651978 186.813416,319.306610 
	C188.969391,314.108063 190.573532,308.670502 192.916245,303.565857 
	C193.588013,302.102142 196.086456,300.478394 197.592865,300.616241 
	C200.242554,300.858704 202.782318,302.395782 201.264191,306.412170 
z"/>
<path fill="#F7D14F" opacity="1.000000" stroke="none" 
	d="
M173.912720,309.008728 
	C172.817902,309.821533 172.031784,310.435303 171.240524,311.042419 
	C168.669220,313.015381 166.738251,312.221497 164.942703,309.799774 
	C163.216827,307.472046 163.346970,305.596069 165.677139,303.835419 
	C170.319550,300.327698 174.944366,296.796509 179.558212,293.251221 
	C182.084717,291.309814 184.050415,291.867950 185.878937,294.338715 
	C187.740051,296.853516 187.504044,298.803040 184.943207,300.663971 
	C181.313110,303.301941 177.788681,306.085358 173.912720,309.008728 
z"/>
<path fill="#F9D24E" opacity="1.000000" stroke="none" 
	d="
M172.987610,276.049377 
	C175.626312,276.029572 177.783264,276.103973 179.928024,275.975220 
	C183.483978,275.761841 185.076431,277.251953 185.051361,280.901276 
	C185.025299,284.694702 182.817154,285.090607 179.820175,285.048248 
	C174.525894,284.973328 169.227921,285.056763 163.933151,285.159058 
	C160.772614,285.220093 158.905228,284.203308 158.952576,280.628143 
	C158.999802,277.062164 160.977753,276.089508 164.060089,276.112457 
	C166.873215,276.133423 169.686935,276.075470 172.987610,276.049377 
z"/>
<path fill="#FDAEE3" opacity="1.000000" stroke="none" 
	d="
M247.620697,244.409760 
	C248.983353,247.310638 250.031494,249.953415 251.384491,252.429596 
	C252.821198,255.058945 253.766968,258.972595 258.179565,256.894623 
	C262.437592,254.889450 260.607483,251.743271 259.239105,248.859665 
	C255.029617,239.988907 250.779190,231.137573 246.549515,222.276367 
	C242.033066,212.814346 237.272766,203.455521 233.180283,193.813385 
	C232.128006,191.334137 232.114883,187.268463 233.489990,185.132889 
	C236.769974,180.038986 242.685684,181.181778 245.632309,187.194031 
	C251.198135,198.550476 256.541321,210.015869 262.003052,221.423523 
	C268.902466,235.833817 275.873718,250.209915 282.711914,264.649109 
	C284.563385,268.558563 287.162354,270.855408 291.687775,270.035583 
	C295.936951,269.265778 297.057281,266.139038 297.396606,262.361115 
	C298.213898,253.261993 298.794189,244.124084 300.101318,235.093170 
	C300.865509,229.813278 302.833496,224.648056 308.365387,222.197418 
	C313.514282,219.916443 316.583252,221.916824 316.199951,227.544113 
	C315.669342,235.333893 314.426300,243.081650 314.055695,250.874374 
	C313.462738,263.342255 313.750244,275.860352 312.908112,288.305969 
	C311.826935,304.284912 307.208527,319.017090 295.130554,330.502533 
	C279.471222,345.393707 254.382156,349.617218 237.889755,339.974396 
	C227.972427,334.175903 220.542435,325.808075 215.485519,315.686890 
	C204.180130,293.059723 193.310287,270.214081 182.367401,247.407333 
	C179.983109,242.438049 181.005219,238.197891 184.509094,236.437759 
	C188.684113,234.340500 192.662613,236.093323 195.262009,241.428177 
	C200.583435,252.349548 205.794067,263.324890 211.057190,274.274689 
	C211.633850,275.474426 212.224854,276.669220 212.862595,277.837189 
	C214.094055,280.092407 215.616959,281.597961 218.472046,280.239563 
	C221.455246,278.820190 221.556320,276.533295 220.392181,273.985657 
	C217.833664,268.386505 215.168060,262.835968 212.519836,257.278137 
	C206.077179,243.756973 199.486099,230.303497 193.299011,216.666595 
	C192.265640,214.388962 191.993042,210.846786 193.047379,208.721649 
	C195.719284,203.336060 202.274506,203.792236 205.291260,209.493195 
	C209.102768,216.696045 212.496750,224.121292 216.018051,231.475876 
	C220.545395,240.931717 225.019653,250.412949 229.519531,259.881927 
	C229.805084,260.482849 229.968811,261.401855 230.438370,261.609589 
	C232.347900,262.454224 234.354614,263.079193 236.325500,263.785156 
	C236.923950,261.824860 238.567490,259.416382 237.950409,257.977325 
	C234.084366,248.961777 229.719437,240.159943 225.509811,231.292038 
	C219.586685,218.814529 213.592178,206.370377 207.757523,193.851685 
	C205.373901,188.737427 206.341583,184.975067 210.089767,183.150864 
	C214.390594,181.057709 217.882828,182.447098 220.471741,187.797363 
	C229.532852,206.523041 238.461411,225.312881 247.620697,244.409760 
z"/>
</svg>