<svg version="1.1" id="Layer_1" xmlns="http://www.w3.org/2000/svg" xmlns:xlink="http://www.w3.org/1999/xlink" x="0px" y="0px"
	 width="100%" viewBox="0 0 500 500" enable-background="new 0 0 500 500" xml:space="preserve">
<path fill="#FFFFFF" opacity="1.000000" stroke="none" 
	d="
M228.000000,501.000000 
	C152.000015,501.000000 76.500038,501.000000 1.000041,501.000000 
	C1.000027,334.333405 1.000027,167.666779 1.000013,1.000130 
	C167.666565,1.000087 334.333130,1.000087 500.999756,1.000043 
	C500.999847,167.666534 500.999847,334.333069 500.999939,500.999817 
	C410.166656,501.000000 319.333344,501.000000 228.000000,501.000000 
M170.011246,283.500000 
	C170.011276,298.489136 169.998734,313.478302 170.014984,328.467438 
	C170.030014,342.339569 178.605789,350.987091 192.331375,350.988556 
	C231.469711,350.992737 270.608063,350.992462 309.746399,350.988892 
	C323.214233,350.987671 331.987549,342.285461 331.988556,328.920563 
	C331.992584,276.958160 331.992828,224.995773 331.988403,173.033386 
	C331.987244,159.700455 323.188751,151.012192 309.698914,151.011124 
	C270.893677,151.008087 232.083328,151.363495 193.286102,150.805618 
	C180.822601,150.626419 169.728256,159.956741 169.880936,174.079865 
	C170.271652,210.216156 170.011261,246.359482 170.011246,283.500000 
z"/>
<path fill="#E6EDE9" opacity="1.000000" stroke="none" 
	d="
M170.011261,283.000000 
	C170.011261,246.359482 170.271652,210.216156 169.880936,174.079865 
	C169.728256,159.956741 180.822601,150.626419 193.286102,150.805618 
	C232.083328,151.363495 270.893677,151.008087 309.698914,151.011124 
	C323.188751,151.012192 331.987244,159.700455 331.988403,173.033386 
	C331.992828,224.995773 331.992584,276.958160 331.988556,328.920563 
	C331.987549,342.285461 323.214233,350.987671 309.746399,350.988892 
	C270.608063,350.992462 231.469711,350.992737 192.331375,350.988556 
	C178.605789,350.987091 170.030014,342.339569 170.014984,328.467438 
	C169.998734,313.478302 170.011276,298.489136 170.011261,283.000000 
M199.513428,154.882889 
	C197.681320,154.883057 195.833221,155.041489 194.019684,154.858078 
	C180.934402,153.534744 173.683487,163.608414 173.780441,174.993011 
	C174.214478,225.958405 173.959793,276.929565 173.976852,327.898651 
	C173.981049,340.433838 180.551270,347.099091 192.931992,347.106781 
	C231.741760,347.130798 270.551575,347.132782 309.361359,347.106110 
	C321.477814,347.097778 328.139862,340.436279 328.147522,328.247162 
	C328.179871,276.778381 328.180786,225.309586 328.147186,173.840836 
	C328.139069,161.393173 321.508362,154.896988 308.942993,154.890320 
	C272.798248,154.871124 236.653503,154.883102 199.513428,154.882889 
z"/>
<path fill="#1A8BBC" opacity="1.000000" stroke="none" 
	d="
M200.011093,154.882858 
	C236.653503,154.883102 272.798248,154.871124 308.942993,154.890320 
	C321.508362,154.896988 328.139069,161.393173 328.147186,173.840836 
	C328.180786,225.309586 328.179871,276.778381 328.147522,328.247162 
	C328.139862,340.436279 321.477814,347.097778 309.361359,347.106110 
	C270.551575,347.132782 231.741760,347.130798 192.931992,347.106781 
	C180.551270,347.099091 173.981049,340.433838 173.976852,327.898651 
	C173.959793,276.929565 174.214478,225.958405 173.780441,174.993011 
	C173.683487,163.608414 180.934402,153.534744 194.019684,154.858078 
	C195.833221,155.041489 197.681320,154.883057 200.011093,154.882858 
M277.867889,195.479065 
	C281.507202,195.559998 285.154205,195.520721 288.783752,195.753510 
	C292.940704,196.020111 293.483521,194.023621 292.477356,190.518661 
	C289.901886,190.321594 287.506714,190.138336 284.709900,189.924332 
	C284.709900,187.213531 284.709900,184.921707 284.709900,182.629883 
	C284.709900,180.224884 284.709900,177.819901 284.709900,175.365204 
	C282.321503,175.365204 280.732910,175.365204 278.640930,175.365204 
	C278.640930,180.086670 278.766418,184.539856 278.565704,188.978302 
	C278.504211,190.337921 277.548126,191.657089 276.930939,192.257416 
	C274.881683,187.385727 272.922913,182.473236 270.751190,177.656769 
	C269.319214,174.480835 265.708466,173.881760 264.341614,176.684219 
	C261.408234,182.698532 258.916168,188.928101 256.243408,195.069550 
	C256.654877,195.524399 257.066315,195.979233 257.477753,196.434082 
	C259.277588,195.319672 260.968811,193.572540 262.902893,193.240570 
	C265.735870,192.754333 268.769073,193.078217 271.666016,193.451660 
	C273.473083,193.684570 275.186432,194.644409 277.867889,195.479065 
M203.998672,332.250305 
	C201.924881,330.817322 199.851105,329.384338 197.777313,327.951355 
	C198.343750,327.875031 198.910187,327.798706 199.476639,327.722382 
	C199.887894,324.649780 201.668610,320.792542 200.444885,318.656769 
	C197.213699,313.017334 191.134796,315.367615 185.711029,315.090271 
	C185.711029,321.764679 185.711029,328.163025 185.711029,334.727112 
	C187.557571,334.727112 189.223145,334.727112 190.851074,334.727112 
	C191.036560,332.453674 191.187790,330.599976 191.376968,328.281158 
	C197.736572,336.150909 198.570389,336.527191 204.879135,334.666901 
	C210.999405,334.832092 217.120193,335.095581 223.239365,335.061981 
	C224.216400,335.056610 225.140289,333.187408 226.167953,333.098877 
	C229.085648,332.847473 232.092453,332.765747 234.969727,333.218109 
	C236.845474,333.512970 238.556427,334.856140 240.341202,335.729736 
	C240.677734,335.297974 241.014252,334.866241 241.350784,334.434479 
	C238.965927,328.822113 236.695831,323.155853 234.104004,317.640747 
	C233.554108,316.470673 231.821045,315.157806 230.649612,315.173096 
	C229.452728,315.188782 227.773987,316.505524 227.179764,317.690735 
	C224.895203,322.247223 222.960846,326.979340 221.258591,330.826385 
	C217.408951,330.360931 214.207260,329.973816 211.005569,329.586700 
	C211.032425,329.070587 211.059280,328.554443 211.086136,328.038330 
	C213.578461,327.822449 216.070786,327.606598 219.035049,327.349854 
	C218.940598,325.629517 218.857758,324.120758 218.781174,322.725830 
	C215.824036,322.338104 213.420792,322.023010 211.017548,321.707916 
	C211.045151,321.221375 211.072754,320.734863 211.100357,320.248352 
	C213.909470,320.025940 216.718582,319.803497 219.903641,319.551331 
	C219.791214,317.906006 219.698654,316.551270 219.612473,315.290039 
	C214.565506,315.290039 209.990326,315.290039 205.023972,315.290039 
	C205.023972,317.561707 205.133987,319.530212 205.000626,321.482117 
	C204.737854,325.328064 204.340073,329.164764 203.998672,332.250305 
M274.854645,299.959229 
	C279.704376,299.176392 281.712097,296.217316 281.145782,291.481873 
	C280.595215,286.877716 277.257629,285.596100 273.294525,285.466492 
	C269.038452,285.327332 264.774353,285.435028 260.123749,285.435028 
	C260.123749,280.216644 260.007507,275.741760 260.209656,271.281372 
	C260.257172,270.233093 261.135223,268.825439 262.047882,268.278809 
	C267.339722,265.109375 272.756165,262.147980 277.513763,259.464111 
	C280.574005,260.330292 283.745392,261.574921 287.019073,261.968079 
	C288.179688,262.107452 289.589294,260.173248 290.885223,259.185699 
	C289.651520,258.138031 288.503143,256.959808 287.158844,256.081421 
	C285.947510,255.289932 284.521545,254.826965 283.190247,254.219101 
	C284.467102,253.207855 285.712921,251.362320 287.025543,251.313538 
	C301.232513,250.785690 309.754822,236.133987 310.412842,224.317413 
	C310.908783,215.411499 305.448669,208.092743 296.868591,206.566864 
	C290.527191,205.439117 284.052368,204.610748 277.623627,204.510849 
	C259.966980,204.236496 242.300064,204.223236 224.644180,204.520172 
	C218.407532,204.625076 212.129211,205.600952 205.981659,206.767883 
	C198.995163,208.094086 193.964050,213.872833 193.130920,220.974655 
	C191.861511,231.795334 199.983734,250.026794 215.566666,251.204651 
	C217.140305,251.323578 218.599472,252.957001 220.111755,253.887558 
	C218.748215,254.600464 217.303391,255.195068 216.044403,256.060150 
	C214.831879,256.893280 213.811432,258.005951 212.706604,258.995819 
	C213.924240,260.046478 215.270523,262.100037 216.335846,261.963379 
	C219.796112,261.519440 223.153519,260.273651 225.665024,259.580841 
	C230.834763,262.474304 235.865021,265.210388 240.794464,268.117401 
	C241.748688,268.680145 242.906464,269.882874 242.950562,270.837494 
	C243.170914,275.606781 243.051361,280.391754 243.051361,285.417969 
	C239.055298,285.417969 235.729599,285.356537 232.406982,285.431396 
	C226.355774,285.567688 223.214859,288.260132 223.399292,293.040619 
	C223.575073,297.597168 226.625748,299.984711 232.483780,299.996704 
	C246.312531,300.025024 260.141388,300.002716 274.854645,299.959229 
M199.309204,273.359894 
	C196.920990,271.826569 194.532761,270.293243 192.144547,268.759918 
	C191.555771,268.799469 190.966995,268.839020 190.378220,268.878571 
	C193.571945,276.994354 189.250275,281.665771 183.347443,286.183258 
	C191.684723,286.626526 194.817566,292.141296 197.423660,298.875977 
	C200.616745,291.577545 206.145630,289.656921 213.739944,290.040558 
	C208.224350,284.389435 207.386139,278.232208 211.057678,270.839813 
	C206.213913,272.105408 203.087296,272.922363 199.309204,273.359894 
M303.964996,273.566010 
	C300.130066,273.390564 296.295105,273.215149 291.607544,273.000702 
	C294.471954,279.247253 293.988037,285.311218 288.306976,290.861755 
	C295.886719,290.597076 301.491669,292.962341 304.916687,300.802124 
	C306.757050,296.308319 307.231781,292.705688 309.283478,290.807861 
	C311.452789,288.801300 315.123840,288.418243 319.674683,286.769714 
	C312.209259,282.780365 309.418060,277.384155 311.273987,268.680450 
	C308.001740,270.835175 306.278656,271.969788 303.964996,273.566010 
M230.509796,183.972534 
	C228.894028,183.972534 227.278244,183.972534 224.495865,183.972534 
	C225.647934,186.554169 226.399750,188.238892 227.762146,191.291855 
	C224.880905,189.995453 222.180328,189.582092 221.070511,188.030716 
	C220.160599,186.758789 220.385544,183.248352 221.469620,182.318756 
	C223.007004,181.000427 225.778488,181.022934 228.054611,180.694260 
	C230.022064,180.410126 232.034164,180.435394 235.122299,180.262558 
	C230.393005,174.840637 225.569885,173.732727 220.565933,175.915756 
	C216.142670,177.845459 213.905670,181.315842 214.138321,186.138535 
	C214.372009,190.983124 216.804855,194.641739 221.643997,195.382523 
	C225.889847,196.032471 230.313904,195.518280 234.830475,195.518280 
	C234.830475,192.088120 235.168427,189.377563 234.674789,186.828003 
	C234.457840,185.707458 232.547272,184.914795 230.509796,183.972534 
M279.908051,327.430908 
	C279.908051,323.358582 279.908051,319.286285 279.908051,314.909088 
	C277.517944,315.050751 275.933167,315.144653 274.272247,315.243103 
	C274.065643,317.689941 273.888794,319.784363 273.706177,321.947296 
	C271.388367,321.947296 269.351929,321.947296 267.231567,321.947296 
	C267.014160,319.497620 266.828796,317.409027 266.633698,315.210693 
	C264.748901,315.210693 263.158508,315.210693 261.306091,315.210693 
	C261.306091,321.837555 261.306091,328.234314 261.306091,334.784607 
	C263.244843,334.784607 264.935028,334.784607 266.701874,334.784607 
	C266.906158,332.316986 267.079742,330.220490 267.259094,328.053894 
	C269.587158,328.053894 271.621429,328.053894 273.773590,328.053894 
	C273.951447,330.515228 274.103149,332.615021 274.257050,334.745056 
	C276.233124,334.745056 277.916260,334.745056 279.907990,334.745056 
	C279.907990,332.355957 279.907990,330.379059 279.908051,327.430908 
M245.669205,195.813248 
	C246.976669,195.610687 248.322891,195.543457 249.584930,195.182205 
	C255.151886,193.588791 258.020142,188.698273 256.935608,182.800354 
	C256.019073,177.816116 251.869980,174.754303 246.346207,174.985931 
	C240.957108,175.211914 237.027634,178.827835 236.265106,184.262680 
	C235.477234,189.878021 238.325836,193.673447 245.669205,195.813248 
M299.873108,333.303375 
	C303.317017,333.873749 306.778198,334.991943 310.200745,334.884155 
	C315.142334,334.728516 318.703613,330.582794 319.014557,325.728760 
	C319.360443,320.329742 316.976959,316.788269 311.523773,315.705994 
	C307.879211,314.982666 304.068848,315.094696 299.841705,314.798492 
	C299.841705,321.132111 299.841705,326.734863 299.873108,333.303375 
M282.975342,317.718567 
	C282.975342,323.473083 282.975342,329.227631 282.975342,335.178253 
	C287.245392,335.178253 290.739685,335.082794 294.226501,335.203125 
	C298.322906,335.344452 298.486542,333.342010 297.423004,330.448212 
	C294.389435,330.123138 291.687836,329.833649 288.986206,329.544159 
	C289.013672,329.070435 289.041138,328.596741 289.068604,328.123047 
	C291.598328,327.853088 294.128021,327.583130 296.755798,327.302734 
	C296.755798,325.669922 296.755798,324.242828 296.755798,322.812469 
	C293.980042,322.384308 291.466125,321.996521 288.952209,321.608734 
	C297.702515,318.218781 297.702515,318.218781 297.208862,314.996521 
	C293.145050,314.996521 289.008545,314.920227 284.880798,315.075592 
	C284.232849,315.099976 283.624451,316.175507 282.975342,317.718567 
M250.681473,335.412415 
	C253.806488,334.487488 256.931488,333.562592 261.119476,332.323059 
	C258.706146,330.250885 257.601013,329.301971 256.609650,328.450745 
	C256.044708,328.565521 255.638306,328.524872 255.431976,328.708771 
	C252.901260,330.964264 249.834717,331.165924 248.008789,328.639618 
	C246.876419,327.072845 246.717346,323.195465 247.849396,322.021332 
	C249.153931,320.668304 252.373322,321.216187 254.740143,320.814819 
	C256.514496,320.513947 258.255676,320.017273 260.520874,319.489014 
	C256.316559,314.766174 251.461716,313.695465 246.794861,315.722229 
	C242.303604,317.672729 240.174393,321.754211 240.844513,327.128418 
	C241.453812,332.014771 243.994049,334.275787 250.681473,335.412415 
M314.401459,199.090057 
	C315.863556,198.847382 317.325653,198.604691 319.479248,198.247223 
	C315.256805,194.951462 302.125275,195.509659 299.037506,199.110260 
	C304.247223,199.110260 308.884399,199.110260 314.401459,199.090057 
M190.515564,196.059769 
	C187.902634,196.191727 185.289703,196.323685 182.676788,196.455643 
	C182.721420,197.204758 182.766068,197.953857 182.810715,198.702972 
	C189.065338,198.702972 195.319962,198.702972 201.574570,198.702972 
	C201.615662,198.065506 201.656769,197.428040 201.697861,196.790573 
	C198.288803,196.553497 194.879730,196.316406 190.515564,196.059769 
M299.595917,187.069839 
	C300.657379,187.636292 301.905090,188.880066 302.747162,188.648529 
	C305.900146,187.781647 308.949982,186.502838 311.979279,185.236832 
	C313.734375,184.503357 315.376495,183.499481 317.758850,182.258057 
	C316.189270,181.436096 315.680359,180.942368 315.382324,181.047333 
	C310.287811,182.841736 305.219360,184.710236 299.595917,187.069839 
M189.473053,182.051788 
	C187.906830,181.710678 186.340622,181.369583 183.794388,180.815063 
	C187.173279,185.393600 197.995483,189.302216 203.291046,187.586319 
	C198.177979,185.525574 194.192230,183.919174 189.473053,182.051788 
M206.164841,178.076904 
	C203.092300,174.714783 200.019775,171.352646 196.947235,167.990524 
	C196.299698,168.570709 195.652161,169.150909 195.004608,169.731094 
	C198.342392,173.602661 201.341782,177.869217 205.179657,181.157028 
	C206.780182,182.528183 207.912125,180.544556 206.164841,178.076904 
M296.530945,181.028488 
	C299.749969,177.330200 302.968994,173.631912 306.436127,169.648575 
	C305.081390,169.134750 304.356110,168.695969 304.222809,168.833023 
	C300.779205,172.373169 297.394012,175.970337 294.088013,179.638123 
	C294.069458,179.658676 295.312500,180.816330 296.530945,181.028488 
z"/>
<path fill="#F3CD29" opacity="1.000000" stroke="none" 
	d="
M274.412415,299.980042 
	C260.141388,300.002716 246.312531,300.025024 232.483780,299.996704 
	C226.625748,299.984711 223.575073,297.597168 223.399292,293.040619 
	C223.214859,288.260132 226.355774,285.567688 232.406982,285.431396 
	C235.729599,285.356537 239.055298,285.417969 243.051361,285.417969 
	C243.051361,280.391754 243.170914,275.606781 242.950562,270.837494 
	C242.906464,269.882874 241.748688,268.680145 240.794464,268.117401 
	C235.865021,265.210388 230.834763,262.474304 225.665024,259.580841 
	C223.153519,260.273651 219.796112,261.519440 216.335846,261.963379 
	C215.270523,262.100037 213.924240,260.046478 212.706604,258.995789 
	C213.811432,258.005951 214.831879,256.893280 216.044403,256.060150 
	C217.303391,255.195068 218.748215,254.600464 220.111755,253.887573 
	C218.599472,252.957001 217.140305,251.323578 215.566666,251.204651 
	C199.983734,250.026794 191.861511,231.795334 193.130920,220.974655 
	C193.964050,213.872833 198.995163,208.094086 205.981659,206.767883 
	C212.129211,205.600952 218.407532,204.625076 224.644180,204.520172 
	C242.300064,204.223236 259.966980,204.236496 277.623627,204.510849 
	C284.052368,204.610748 290.527191,205.439117 296.868591,206.566864 
	C305.448669,208.092743 310.908783,215.411499 310.412842,224.317413 
	C309.754822,236.133987 301.232513,250.785690 287.025543,251.313538 
	C285.712921,251.362320 284.467102,253.207855 283.190247,254.219101 
	C284.521545,254.826965 285.947510,255.289932 287.158844,256.081421 
	C288.503143,256.959808 289.651520,258.138031 290.885223,259.185699 
	C289.589294,260.173248 288.179688,262.107452 287.019073,261.968079 
	C283.745392,261.574921 280.574005,260.330292 277.513763,259.464111 
	C272.756165,262.147980 267.339722,265.109375 262.047882,268.278809 
	C261.135223,268.825439 260.257172,270.233093 260.209656,271.281372 
	C260.007507,275.741760 260.123749,280.216644 260.123749,285.435028 
	C264.774353,285.435028 269.038452,285.327332 273.294525,285.466492 
	C277.257629,285.596100 280.595215,286.877716 281.145782,291.481873 
	C281.712097,296.217316 279.704376,299.176392 274.412415,299.980042 
M211.203644,212.227493 
	C202.774231,213.020874 198.104431,217.117233 199.329422,224.191071 
	C200.227997,229.380066 202.484665,234.636627 205.332108,239.100067 
	C208.167740,243.544998 213.144608,245.411865 217.907578,245.062897 
	C216.843155,235.542587 215.930023,226.357025 214.691162,217.215607 
	C214.462952,215.531555 212.915680,214.026276 211.203644,212.227493 
M286.956451,234.362579 
	C286.180908,237.819229 285.405365,241.275879 284.610779,244.817535 
	C295.897491,245.017654 304.530334,235.182922 304.201813,223.129242 
	C304.043579,217.323639 301.184723,213.845932 295.519012,212.566925 
	C290.806915,211.503204 289.126984,212.808853 288.696289,217.623199 
	C288.222412,222.920395 287.606018,228.204834 286.956451,234.362579 
M222.028748,213.878632 
	C221.858963,212.628265 221.689163,211.377884 221.367447,209.008560 
	C215.988525,218.234604 220.437408,244.047714 227.959808,247.158005 
	C222.970062,236.436768 221.275787,225.800049 222.028748,213.878632 
M241.030716,259.622681 
	C236.847916,256.160248 232.665131,252.697784 228.232834,249.028824 
	C228.900223,255.442474 238.916260,263.685425 246.056915,262.963562 
	C244.084991,261.589569 242.892960,260.759003 241.030716,259.622681 
M256.496002,283.825317 
	C252.750854,283.643311 249.005722,283.461334 245.260574,283.279327 
	C245.264893,283.973022 245.269226,284.666687 245.273544,285.360382 
	C249.123978,285.834229 252.972351,287.062012 256.496002,283.825317 
z"/>
<path fill="#01080B" opacity="1.000000" stroke="none" 
	d="
M203.998138,333.005310 
	C204.340073,329.164764 204.737854,325.328064 205.000626,321.482117 
	C205.133987,319.530212 205.023972,317.561707 205.023972,315.290039 
	C209.990326,315.290039 214.565506,315.290039 219.612473,315.290039 
	C219.698654,316.551270 219.791214,317.906006 219.903641,319.551331 
	C216.718582,319.803497 213.909470,320.025940 211.100357,320.248352 
	C211.072754,320.734863 211.045151,321.221375 211.017548,321.707916 
	C213.420792,322.023010 215.824036,322.338104 218.781174,322.725830 
	C218.857758,324.120758 218.940598,325.629517 219.035049,327.349854 
	C216.070786,327.606598 213.578461,327.822449 211.086136,328.038330 
	C211.059280,328.554443 211.032425,329.070587 211.005569,329.586700 
	C214.207260,329.973816 217.408951,330.360931 221.258591,330.826385 
	C222.960846,326.979340 224.895203,322.247223 227.179764,317.690735 
	C227.773987,316.505524 229.452728,315.188782 230.649612,315.173096 
	C231.821045,315.157806 233.554108,316.470673 234.104004,317.640747 
	C236.695831,323.155853 238.965927,328.822113 241.350784,334.434479 
	C241.014252,334.866241 240.677734,335.297974 240.341202,335.729736 
	C238.556427,334.856140 236.845474,333.512970 234.969727,333.218109 
	C232.092453,332.765747 229.085648,332.847473 226.167953,333.098877 
	C225.140289,333.187408 224.216400,335.056610 223.239365,335.061981 
	C217.120193,335.095581 210.999405,334.832092 204.428284,334.276489 
	C203.977264,333.592316 203.984177,333.298737 203.998138,333.005310 
z"/>
<path fill="#EBEFEA" opacity="1.000000" stroke="none" 
	d="
M199.634949,273.549591 
	C203.087296,272.922363 206.213913,272.105408 211.057678,270.839813 
	C207.386139,278.232208 208.224350,284.389435 213.739944,290.040558 
	C206.145630,289.656921 200.616745,291.577545 197.423660,298.875977 
	C194.817566,292.141296 191.684723,286.626526 183.347443,286.183258 
	C189.250275,281.665771 193.571945,276.994354 190.378220,268.878571 
	C190.966995,268.839020 191.555771,268.799469 192.144547,268.759918 
	C194.532761,270.293243 196.920990,271.826569 199.634949,273.549591 
z"/>
<path fill="#EBEFEA" opacity="1.000000" stroke="none" 
	d="
M304.260284,273.335205 
	C306.278656,271.969788 308.001740,270.835175 311.273987,268.680450 
	C309.418060,277.384155 312.209259,282.780365 319.674683,286.769714 
	C315.123840,288.418243 311.452789,288.801300 309.283478,290.807861 
	C307.231781,292.705688 306.757050,296.308319 304.916687,300.802124 
	C301.491669,292.962341 295.886719,290.597076 288.306976,290.861755 
	C293.988037,285.311218 294.471954,279.247253 291.607544,273.000702 
	C296.295105,273.215149 300.130066,273.390564 304.260284,273.335205 
z"/>
<path fill="#02090C" opacity="1.000000" stroke="none" 
	d="
M230.957733,183.972900 
	C232.547272,184.914795 234.457840,185.707458 234.674789,186.828003 
	C235.168427,189.377563 234.830475,192.088120 234.830475,195.518280 
	C230.313904,195.518280 225.889847,196.032471 221.643997,195.382523 
	C216.804855,194.641739 214.372009,190.983124 214.138321,186.138535 
	C213.905670,181.315842 216.142670,177.845459 220.565933,175.915756 
	C225.569885,173.732727 230.393005,174.840637 235.122299,180.262558 
	C232.034164,180.435394 230.022064,180.410126 228.054611,180.694260 
	C225.778488,181.022934 223.007004,181.000427 221.469620,182.318756 
	C220.385544,183.248352 220.160599,186.758789 221.070511,188.030716 
	C222.180328,189.582092 224.880905,189.995453 227.762146,191.291855 
	C226.399750,188.238892 225.647934,186.554169 224.495865,183.972534 
	C227.278244,183.972534 228.894028,183.972534 230.957733,183.972900 
z"/>
<path fill="#010304" opacity="1.000000" stroke="none" 
	d="
M203.998413,332.627808 
	C203.984177,333.298737 203.977264,333.592316 203.983627,334.101624 
	C198.570389,336.527191 197.736572,336.150909 191.376968,328.281158 
	C191.187790,330.599976 191.036560,332.453674 190.851074,334.727112 
	C189.223145,334.727112 187.557571,334.727112 185.711029,334.727112 
	C185.711029,328.163025 185.711029,321.764679 185.711029,315.090271 
	C191.134796,315.367615 197.213699,313.017334 200.444885,318.656769 
	C201.668610,320.792542 199.887894,324.649780 199.476639,327.722382 
	C198.910187,327.798706 198.343750,327.875031 197.777313,327.951355 
	C199.851105,329.384338 201.924881,330.817322 203.998413,332.627808 
z"/>
<path fill="#02090C" opacity="1.000000" stroke="none" 
	d="
M279.908020,327.916504 
	C279.907990,330.379059 279.907990,332.355957 279.907990,334.745056 
	C277.916260,334.745056 276.233124,334.745056 274.257050,334.745056 
	C274.103149,332.615021 273.951447,330.515228 273.773590,328.053894 
	C271.621429,328.053894 269.587158,328.053894 267.259094,328.053894 
	C267.079742,330.220490 266.906158,332.316986 266.701874,334.784607 
	C264.935028,334.784607 263.244843,334.784607 261.306091,334.784607 
	C261.306091,328.234314 261.306091,321.837555 261.306091,315.210693 
	C263.158508,315.210693 264.748901,315.210693 266.633698,315.210693 
	C266.828796,317.409027 267.014160,319.497620 267.231567,321.947296 
	C269.351929,321.947296 271.388367,321.947296 273.706177,321.947296 
	C273.888794,319.784363 274.065643,317.689941 274.272247,315.243103 
	C275.933167,315.144653 277.517944,315.050751 279.908051,314.909088 
	C279.908051,319.286285 279.908051,323.358582 279.908020,327.916504 
z"/>
<path fill="#010709" opacity="1.000000" stroke="none" 
	d="
M245.275909,195.778824 
	C238.325836,193.673447 235.477234,189.878021 236.265106,184.262680 
	C237.027634,178.827835 240.957108,175.211914 246.346207,174.985931 
	C251.869980,174.754303 256.019073,177.816116 256.935608,182.800354 
	C258.020142,188.698273 255.151886,193.588791 249.584930,195.182205 
	C248.322891,195.543457 246.976669,195.610687 245.275909,195.778824 
M244.460205,180.846649 
	C241.598267,183.033432 240.975128,185.975830 243.182632,188.580307 
	C244.233490,189.820160 248.141418,190.631760 248.539032,190.069702 
	C249.899002,188.147171 251.039093,185.462723 250.840134,183.193695 
	C250.577728,180.201248 247.986618,179.461166 244.460205,180.846649 
z"/>
<path fill="#010304" opacity="1.000000" stroke="none" 
	d="
M299.857422,332.820496 
	C299.841705,326.734863 299.841705,321.132111 299.841705,314.798492 
	C304.068848,315.094696 307.879211,314.982666 311.523773,315.705994 
	C316.976959,316.788269 319.360443,320.329742 319.014557,325.728760 
	C318.703613,330.582794 315.142334,334.728516 310.200745,334.884155 
	C306.778198,334.991943 303.317017,333.873749 299.857422,332.820496 
M305.290741,323.714417 
	C305.290741,325.671753 305.290741,327.629089 305.290741,329.944672 
	C307.222656,329.944672 309.243011,330.537842 309.975311,329.818939 
	C311.419128,328.401520 313.127319,326.121033 312.895905,324.451172 
	C312.668854,322.812927 310.396393,321.008179 308.603638,320.161621 
	C306.757050,319.289612 305.003082,320.202637 305.290741,323.714417 
z"/>
<path fill="#02090C" opacity="1.000000" stroke="none" 
	d="
M282.986572,317.241791 
	C283.624451,316.175507 284.232849,315.099976 284.880798,315.075592 
	C289.008545,314.920227 293.145050,314.996521 297.208862,314.996521 
	C297.702515,318.218781 297.702515,318.218781 288.952209,321.608734 
	C291.466125,321.996521 293.980042,322.384308 296.755798,322.812469 
	C296.755798,324.242828 296.755798,325.669922 296.755798,327.302734 
	C294.128021,327.583130 291.598328,327.853088 289.068604,328.123047 
	C289.041138,328.596741 289.013672,329.070435 288.986206,329.544159 
	C291.687836,329.833649 294.389435,330.123138 297.423004,330.448212 
	C298.486542,333.342010 298.322906,335.344452 294.226501,335.203125 
	C290.739685,335.082794 287.245392,335.178253 282.975342,335.178253 
	C282.975342,329.227631 282.975342,323.473083 282.986572,317.241791 
z"/>
<path fill="#02090C" opacity="1.000000" stroke="none" 
	d="
M276.941833,195.278030 
	C275.186432,194.644409 273.473083,193.684570 271.666016,193.451660 
	C268.769073,193.078217 265.735870,192.754333 262.902893,193.240570 
	C260.968811,193.572540 259.277588,195.319672 257.477753,196.434082 
	C257.066315,195.979233 256.654877,195.524399 256.243408,195.069550 
	C258.916168,188.928101 261.408234,182.698532 264.341614,176.684219 
	C265.708466,173.881760 269.319214,174.480835 270.751190,177.656769 
	C272.922913,182.473236 274.881683,187.385727 276.958313,192.912842 
	C276.971039,194.138199 276.956421,194.708115 276.941833,195.278030 
z"/>
<path fill="#010709" opacity="1.000000" stroke="none" 
	d="
M250.314163,335.321259 
	C243.994049,334.275787 241.453812,332.014771 240.844513,327.128418 
	C240.174393,321.754211 242.303604,317.672729 246.794861,315.722229 
	C251.461716,313.695465 256.316559,314.766174 260.520874,319.489014 
	C258.255676,320.017273 256.514496,320.513947 254.740143,320.814819 
	C252.373322,321.216187 249.153931,320.668304 247.849396,322.021332 
	C246.717346,323.195465 246.876419,327.072845 248.008789,328.639618 
	C249.834717,331.165924 252.901260,330.964264 255.431976,328.708771 
	C255.638306,328.524872 256.044708,328.565521 256.609650,328.450745 
	C257.601013,329.301971 258.706146,330.250885 261.119476,332.323059 
	C256.931488,333.562592 253.806488,334.487488 250.314163,335.321259 
z"/>
<path fill="#031016" opacity="1.000000" stroke="none" 
	d="
M277.404846,195.378540 
	C276.956421,194.708115 276.971039,194.138199 276.993713,193.281540 
	C277.548126,191.657089 278.504211,190.337921 278.565704,188.978302 
	C278.766418,184.539856 278.640930,180.086670 278.640930,175.365204 
	C280.732910,175.365204 282.321503,175.365204 284.709900,175.365204 
	C284.709900,177.819901 284.709900,180.224884 284.709900,182.629883 
	C284.709900,184.921707 284.709900,187.213531 284.709900,189.924332 
	C287.506714,190.138336 289.901886,190.321594 292.477356,190.518661 
	C293.483521,194.023621 292.940704,196.020111 288.783752,195.753510 
	C285.154205,195.520721 281.507202,195.559998 277.404846,195.378540 
z"/>
<path fill="#DEE9E7" opacity="1.000000" stroke="none" 
	d="
M313.961487,199.100159 
	C308.884399,199.110260 304.247223,199.110260 299.037506,199.110260 
	C302.125275,195.509659 315.256805,194.951462 319.479248,198.247223 
	C317.325653,198.604691 315.863556,198.847382 313.961487,199.100159 
z"/>
<path fill="#DEE9E7" opacity="1.000000" stroke="none" 
	d="
M190.993118,196.069550 
	C194.879730,196.316406 198.288803,196.553497 201.697861,196.790573 
	C201.656769,197.428040 201.615662,198.065506 201.574570,198.702972 
	C195.319962,198.702972 189.065338,198.702972 182.810715,198.702972 
	C182.766068,197.953857 182.721420,197.204758 182.676788,196.455643 
	C185.289703,196.323685 187.902634,196.191727 190.993118,196.069550 
z"/>
<path fill="#DEE9E7" opacity="1.000000" stroke="none" 
	d="
M299.870544,186.816132 
	C305.219360,184.710236 310.287811,182.841736 315.382324,181.047333 
	C315.680359,180.942368 316.189270,181.436096 317.758850,182.258057 
	C315.376495,183.499481 313.734375,184.503357 311.979279,185.236832 
	C308.949982,186.502838 305.900146,187.781647 302.747162,188.648529 
	C301.905090,188.880066 300.657379,187.636292 299.870544,186.816132 
z"/>
<path fill="#DEE9E7" opacity="1.000000" stroke="none" 
	d="
M189.839783,182.182281 
	C194.192230,183.919174 198.177979,185.525574 203.291046,187.586319 
	C197.995483,189.302216 187.173279,185.393600 183.794388,180.815063 
	C186.340622,181.369583 187.906830,181.710678 189.839783,182.182281 
z"/>
<path fill="#DEE9E7" opacity="1.000000" stroke="none" 
	d="
M206.373077,178.326447 
	C207.912125,180.544556 206.780182,182.528183 205.179657,181.157028 
	C201.341782,177.869217 198.342392,173.602661 195.004608,169.731094 
	C195.652161,169.150909 196.299698,168.570709 196.947235,167.990524 
	C200.019775,171.352646 203.092300,174.714783 206.373077,178.326447 
z"/>
<path fill="#DEE9E7" opacity="1.000000" stroke="none" 
	d="
M296.248657,181.235733 
	C295.312500,180.816330 294.069458,179.658676 294.088013,179.638123 
	C297.394012,175.970337 300.779205,172.373169 304.222809,168.833023 
	C304.356110,168.695969 305.081390,169.134750 306.436127,169.648575 
	C302.968994,173.631912 299.749969,177.330200 296.248657,181.235733 
z"/>
<path fill="#1F8DB9" opacity="1.000000" stroke="none" 
	d="
M211.590454,212.332977 
	C212.915680,214.026276 214.462952,215.531555 214.691162,217.215607 
	C215.930023,226.357025 216.843155,235.542587 217.907578,245.062897 
	C213.144608,245.411865 208.167740,243.544998 205.332108,239.100067 
	C202.484665,234.636627 200.227997,229.380066 199.329422,224.191071 
	C198.104431,217.117233 202.774231,213.020874 211.590454,212.332977 
z"/>
<path fill="#1F8DB9" opacity="1.000000" stroke="none" 
	d="
M287.004089,233.928711 
	C287.606018,228.204834 288.222412,222.920395 288.696289,217.623199 
	C289.126984,212.808853 290.806915,211.503204 295.519012,212.566925 
	C301.184723,213.845932 304.043579,217.323639 304.201813,223.129242 
	C304.530334,235.182922 295.897491,245.017654 284.610779,244.817535 
	C285.405365,241.275879 286.180908,237.819229 287.004089,233.928711 
z"/>
<path fill="#F2EFD9" opacity="1.000000" stroke="none" 
	d="
M222.015442,214.334717 
	C221.275787,225.800049 222.970062,236.436768 227.959808,247.158005 
	C220.437408,244.047714 215.988525,218.234604 221.367447,209.008560 
	C221.689163,211.377884 221.858963,212.628265 222.015442,214.334717 
z"/>
<path fill="#F2EFD9" opacity="1.000000" stroke="none" 
	d="
M241.365814,259.775543 
	C242.892960,260.759003 244.084991,261.589569 246.056915,262.963562 
	C238.916260,263.685425 228.900223,255.442474 228.232834,249.028824 
	C232.665131,252.697784 236.847916,256.160248 241.365814,259.775543 
z"/>
<path fill="#F2EFD9" opacity="1.000000" stroke="none" 
	d="
M256.663391,284.205505 
	C252.972351,287.062012 249.123978,285.834229 245.273544,285.360382 
	C245.269226,284.666687 245.264893,283.973022 245.260574,283.279327 
	C249.005722,283.461334 252.750854,283.643311 256.663391,284.205505 
z"/>
<path fill="#1885B4" opacity="1.000000" stroke="none" 
	d="
M244.803192,180.656464 
	C247.986618,179.461166 250.577728,180.201248 250.840134,183.193695 
	C251.039093,185.462723 249.899002,188.147171 248.539032,190.069702 
	C248.141418,190.631760 244.233490,189.820160 243.182632,188.580307 
	C240.975128,185.975830 241.598267,183.033432 244.803192,180.656464 
z"/>
<path fill="#1885B4" opacity="1.000000" stroke="none" 
	d="
M305.292358,323.276154 
	C305.003082,320.202637 306.757050,319.289612 308.603638,320.161621 
	C310.396393,321.008179 312.668854,322.812927 312.895905,324.451172 
	C313.127319,326.121033 311.419128,328.401520 309.975311,329.818939 
	C309.243011,330.537842 307.222656,329.944672 305.290741,329.944672 
	C305.290741,327.629089 305.290741,325.671753 305.292358,323.276154 
z"/>
</svg>