<svg version="1.1" id="Layer_1" xmlns="http://www.w3.org/2000/svg" xmlns:xlink="http://www.w3.org/1999/xlink" x="0px" y="0px"
	 width="100%" viewBox="0 0 500 500" enable-background="new 0 0 500 500" xml:space="preserve">
<path fill="#FFFFFF" opacity="1.000000" stroke="none" 
	d="
M243.000000,501.000000 
	C162.000015,501.000000 81.500038,501.000000 1.000043,501.000000 
	C1.000029,334.333405 1.000029,167.666779 1.000014,1.000133 
	C167.666565,1.000088 334.333130,1.000088 500.999756,1.000044 
	C500.999847,167.666519 500.999847,334.333038 500.999939,500.999786 
	C415.166656,501.000000 329.333344,501.000000 243.000000,501.000000 
M244.680344,328.380890 
	C233.230606,331.712677 226.185898,339.458923 222.046219,350.617126 
	C240.949646,350.617126 259.425812,350.617126 278.448242,350.617126 
	C274.042206,338.954437 266.596283,331.368622 255.090057,327.043152 
	C255.090057,318.768646 255.090057,310.494141 255.090057,302.007690 
	C258.181213,301.577789 260.927277,301.594330 263.392822,300.770874 
	C268.674835,299.006775 274.052826,297.256744 278.926483,294.636169 
	C282.365784,292.786835 283.343811,289.308899 280.393585,285.313324 
	C288.872589,280.201996 296.317596,272.853973 307.623108,274.210632 
	C310.520386,274.558350 313.798187,272.971313 316.704529,271.789551 
	C328.305176,267.072449 337.293854,259.520508 341.414551,247.303955 
	C344.946930,236.831619 339.062714,227.845657 328.535339,227.453949 
	C325.809021,227.352509 323.054901,227.999084 319.841003,228.354309 
	C319.841003,225.564758 319.841003,223.273224 320.008575,220.188812 
	C320.891144,215.885406 318.289215,213.488556 314.949799,212.049683 
	C310.399933,210.089233 305.735535,208.159515 300.926697,207.073380 
	C269.850403,200.054428 238.542038,200.354523 207.271957,205.340912 
	C199.686386,206.550537 192.302689,209.515244 185.087387,212.340149 
	C181.761276,213.642365 178.635590,216.351501 180.656235,221.739212 
	C180.656235,223.832062 180.656235,225.924911 180.656235,228.215042 
	C177.597565,227.953629 174.769791,227.249634 172.058884,227.561478 
	C161.182755,228.812607 156.382629,237.725113 160.521561,248.545334 
	C166.356262,263.798676 183.433090,275.074646 200.497482,274.998749 
	C202.281204,274.990814 204.460510,274.689819 205.780518,275.555359 
	C210.728195,278.799652 215.395309,282.471771 219.677185,286.455505 
	C217.472031,289.804047 218.573990,292.816711 221.479630,294.648621 
	C224.925705,296.821320 228.751236,298.588989 232.639191,299.809479 
	C236.662903,301.072571 240.958527,301.469452 245.366776,302.288239 
	C245.366776,311.144348 245.366776,319.604523 244.680344,328.380890 
M242.162216,153.793594 
	C233.957657,154.459381 233.957001,154.459381 233.996292,162.827469 
	C234.003311,164.324768 233.979813,165.823471 234.035873,167.319077 
	C234.387970,176.712753 234.758591,186.105728 235.100952,194.928680 
	C241.232956,194.928680 246.673935,194.966492 252.114197,194.919922 
	C260.518127,194.847992 260.521881,194.823166 259.783386,186.363953 
	C259.757965,186.072433 259.484253,185.802582 259.094452,185.111938 
	C254.874313,185.111938 250.427078,185.110809 245.979843,185.112457 
	C243.977432,185.113190 241.382095,185.386353 242.131790,182.350250 
	C242.375961,181.361481 244.953857,180.383682 246.467545,180.378815 
	C251.164368,180.363663 255.862732,180.818375 260.598419,181.092972 
	C260.598419,176.500610 260.598419,172.938721 260.598419,168.962463 
	C254.311234,169.373581 248.447250,169.757034 242.404770,170.152145 
	C242.404770,167.393311 242.404770,165.373520 242.404770,163.489410 
	C248.499588,162.504425 254.148575,161.591492 259.591766,160.711823 
	C259.591766,157.120087 259.591766,154.237869 259.591766,150.965225 
	C253.744202,151.871384 248.370804,152.704041 242.162216,153.793594 
M212.017502,185.459351 
	C212.017502,183.744690 212.017502,182.030029 212.017502,180.315369 
	C212.533325,180.101959 213.049149,179.888535 213.564957,179.675125 
	C217.947083,185.065216 222.329193,190.455307 226.646713,195.765945 
	C228.987442,193.718948 231.037430,191.926193 233.117920,190.106766 
	C228.847061,184.681015 224.967682,179.752579 221.031082,174.751480 
	C221.776077,173.849579 222.275558,173.207367 222.813568,172.599258 
	C229.611664,164.915482 226.614731,155.184662 216.471939,153.092194 
	C212.717697,152.317657 208.660828,153.045563 204.742432,153.020004 
	C201.490067,152.998795 200.937103,154.928909 201.123367,157.627335 
	C201.819305,167.708664 202.404572,177.797913 203.153809,187.875107 
	C203.392944,191.091583 204.012268,194.279785 204.465134,197.534775 
	C207.487747,197.167435 210.058075,196.855042 213.227539,196.469849 
	C212.809433,192.818604 212.437851,189.573715 212.017502,185.459351 
M171.511078,190.874161 
	C174.986221,196.666946 179.449234,201.299164 186.621796,201.676315 
	C192.210831,201.970184 197.564743,197.914429 199.657883,192.558716 
	C201.234924,188.523529 199.291077,177.098251 196.398453,174.688812 
	C195.679886,174.090286 194.115921,173.916794 193.196945,174.251617 
	C189.370941,175.645660 185.642838,177.308411 181.987656,178.827377 
	C183.713821,186.621628 184.048538,186.838547 191.605408,185.554703 
	C192.162247,190.440567 190.385696,192.641922 186.416306,191.984589 
	C181.171722,191.116089 176.287537,183.743439 177.013351,177.790878 
	C177.748688,171.760208 180.644104,169.785233 187.861664,170.391235 
	C191.403076,163.353516 190.116440,161.146912 182.350967,161.009399 
	C177.225952,160.918640 173.344604,163.384354 170.837997,167.579727 
	C166.352127,175.087891 166.762589,182.733337 171.511078,190.874161 
M290.765839,184.717957 
	C288.433929,176.078842 286.170410,167.420105 283.700714,158.820557 
	C283.303192,157.436478 281.970825,155.248703 281.096558,155.261139 
	C277.496796,155.312271 273.688019,155.524536 270.423370,156.838486 
	C269.149292,157.351273 268.940826,160.894928 268.532318,163.110687 
	C266.416870,174.585526 264.393738,186.077362 262.249084,198.062347 
	C265.705902,198.432434 268.546631,198.736557 271.444427,199.046799 
	C272.486786,192.599442 273.401520,186.941589 274.272156,181.556534 
	C279.343658,179.819183 281.594086,181.545044 282.121429,186.245956 
	C282.358887,188.362839 283.295990,190.391571 283.714783,192.500183 
	C284.269531,195.293411 284.647614,197.805984 288.697693,196.627350 
	C292.210754,195.604996 294.024017,194.183533 292.249908,190.304459 
	C291.571289,188.820663 291.380219,187.113876 290.765839,184.717957 
M325.861328,165.134415 
	C325.861328,162.544525 325.861328,159.954636 325.861328,157.373245 
	C314.134460,157.373245 303.250946,157.373245 292.397095,157.373245 
	C292.397095,161.360031 292.397095,164.913010 292.397095,168.608109 
	C295.395203,168.823318 297.987274,169.009369 301.350525,169.250778 
	C299.969360,179.565430 298.644257,189.461411 297.253998,199.843857 
	C301.258392,200.261063 304.883972,200.638794 308.523834,201.018021 
	C310.186401,189.847961 311.716339,179.568878 313.314392,168.832153 
	C315.686371,168.832153 317.738403,169.194931 319.587708,168.737732 
	C321.760376,168.200592 323.756989,166.951447 325.861328,165.134415 
M331.454620,170.937317 
	C327.954987,177.356537 324.332489,183.714493 321.072754,190.253326 
	C320.507874,191.386414 321.032959,194.241394 321.838898,194.616638 
	C323.216400,195.258041 325.980408,195.260635 326.828339,194.324005 
	C332.703217,187.834717 338.233673,181.033569 344.011627,174.169876 
	C340.768127,171.226578 337.875061,168.601257 334.594116,165.623978 
	C333.478271,167.525726 332.658508,168.922882 331.454620,170.937317 
M313.021118,200.618347 
	C314.086090,202.453842 315.151093,204.289322 316.389496,206.423676 
	C318.226135,205.014877 319.390472,204.158417 320.513367,203.250595 
	C321.730591,202.266479 322.909119,201.234512 324.109528,200.219208 
	C318.237701,193.605087 317.304443,193.612656 313.021118,200.618347 
z"/>
<path fill="#F2A03E" opacity="1.000000" stroke="none" 
	d="
M319.841003,220.981705 
	C319.841003,223.273224 319.841003,225.564758 319.841003,228.354309 
	C323.054901,227.999084 325.809021,227.352509 328.535339,227.453949 
	C339.062714,227.845657 344.946930,236.831619 341.414551,247.303955 
	C337.293854,259.520508 328.305176,267.072449 316.704529,271.789551 
	C313.798187,272.971313 310.520386,274.558350 307.623108,274.210632 
	C296.317596,272.853973 288.872589,280.201996 279.856049,285.641724 
	C278.673584,286.104553 277.974304,286.121307 277.391663,286.390533 
	C260.735840,294.087677 243.832062,293.930084 226.729660,288.063995 
	C224.559723,287.319763 222.355789,286.674591 220.167587,285.983551 
	C215.395309,282.471771 210.728195,278.799652 205.780518,275.555359 
	C204.460510,274.689819 202.281204,274.990814 200.497482,274.998749 
	C183.433090,275.074646 166.356262,263.798676 160.521561,248.545334 
	C156.382629,237.725113 161.182755,228.812607 172.058884,227.561478 
	C174.769791,227.249634 177.597565,227.953629 180.656235,228.215042 
	C180.656235,225.924911 180.656235,223.832062 181.055542,221.470718 
	C183.279724,222.115311 185.104599,223.028397 187.105728,224.261368 
	C187.950897,225.040283 188.562836,225.639938 189.297180,225.937546 
	C202.820526,231.417694 217.203079,233.106857 231.487823,233.764481 
	C251.829224,234.700943 272.314667,234.926346 292.430023,230.810287 
	C300.098328,229.241165 307.487976,226.310486 315.330261,223.967682 
	C317.050903,222.950577 318.445953,221.966141 319.841003,220.981705 
M237.734528,280.072235 
	C240.873932,278.267639 244.140106,276.647400 247.114044,274.602203 
	C249.657867,272.852783 251.714783,272.801056 254.215591,274.660461 
	C257.072083,276.784332 260.205292,278.535980 264.447815,281.230164 
	C263.153046,275.518768 262.189148,271.266937 262.130646,267.014160 
	C276.091248,266.350830 290.051819,265.687469 303.739136,265.623962 
	C303.329803,266.256622 302.920471,266.889313 302.390778,267.708038 
	C316.358887,268.773590 332.847321,256.258057 335.322266,243.162811 
	C336.141174,238.829880 334.549622,235.369461 330.309631,234.959091 
	C326.389191,234.579666 322.300049,235.942871 317.781677,235.795258 
	C316.030273,235.529907 314.252136,234.924286 312.532257,235.059616 
	C305.983093,235.574982 299.454102,236.343445 292.915039,236.991653 
	C279.349213,238.336426 265.781738,239.664795 251.965210,240.478531 
	C251.061691,240.675980 250.158188,240.873428 248.356781,241.033310 
	C243.739868,241.392456 239.114594,241.667618 234.507538,242.125916 
	C218.398346,243.728378 202.295456,245.394089 185.928299,246.315414 
	C184.466141,242.895889 183.767212,238.738861 181.352417,236.239883 
	C178.194916,232.972351 171.440796,233.494125 168.362717,236.122543 
	C164.318787,239.575668 165.692673,243.777313 167.534012,247.487198 
	C173.768585,260.048553 183.861847,267.137421 198.699127,268.318146 
	C201.193588,271.703735 204.799759,271.119476 208.243500,270.909515 
	C218.125107,270.307037 228.002274,269.631592 237.952042,269.820801 
	C237.628784,273.208557 237.305511,276.596283 236.641281,280.020966 
	C236.765350,280.019104 236.889404,280.017212 237.734528,280.072235 
z"/>
<path fill="#FBC31C" opacity="1.000000" stroke="none" 
	d="
M186.929489,223.941498 
	C185.104599,223.028397 183.279724,222.115311 181.184265,221.096985 
	C178.635590,216.351501 181.761276,213.642365 185.087387,212.340149 
	C192.302689,209.515244 199.686386,206.550537 207.271957,205.340912 
	C238.542038,200.354523 269.850403,200.054428 300.926697,207.073380 
	C305.735535,208.159515 310.399933,210.089233 314.949799,212.049683 
	C318.289215,213.488556 320.891144,215.885406 319.924805,220.585266 
	C318.445953,221.966141 317.050903,222.950577 315.103638,223.695358 
	C299.972687,216.660202 284.161713,215.184982 268.555328,214.299377 
	C248.538528,213.163483 228.343369,212.976746 208.543442,217.190872 
	C201.192841,218.755341 194.125824,221.652237 186.929489,223.941498 
z"/>
<path fill="#F2A140" opacity="1.000000" stroke="none" 
	d="
M255.063919,327.976685 
	C266.596283,331.368622 274.042206,338.954437 278.448242,350.617126 
	C259.425812,350.617126 240.949646,350.617126 222.046219,350.617126 
	C226.185898,339.458923 233.230606,331.712677 245.451477,328.195709 
	C249.169724,327.999237 252.116821,327.987946 255.063919,327.976685 
z"/>
<path fill="#A8DCD9" opacity="1.000000" stroke="none" 
	d="
M242.579819,153.665161 
	C248.370804,152.704041 253.744202,151.871384 259.591766,150.965225 
	C259.591766,154.237869 259.591766,157.120087 259.591766,160.711823 
	C254.148575,161.591492 248.499588,162.504425 242.404770,163.489410 
	C242.404770,165.373520 242.404770,167.393311 242.404770,170.152145 
	C248.447250,169.757034 254.311234,169.373581 260.598419,168.962463 
	C260.598419,172.938721 260.598419,176.500610 260.598419,181.092972 
	C255.862732,180.818375 251.164368,180.363663 246.467545,180.378815 
	C244.953857,180.383682 242.375961,181.361481 242.131790,182.350250 
	C241.382095,185.386353 243.977432,185.113190 245.979843,185.112457 
	C250.427078,185.110809 254.874313,185.111938 259.094452,185.111938 
	C259.484253,185.802582 259.757965,186.072433 259.783386,186.363953 
	C260.521881,194.823166 260.518127,194.847992 252.114197,194.919922 
	C246.673935,194.966492 241.232956,194.928680 235.100952,194.928680 
	C234.758591,186.105728 234.387970,176.712753 234.035873,167.319077 
	C233.979813,165.823471 234.003311,164.324768 233.996292,162.827469 
	C233.957001,154.459381 233.957657,154.459381 242.579819,153.665161 
z"/>
<path fill="#FBC31D" opacity="1.000000" stroke="none" 
	d="
M255.076996,327.509888 
	C252.116821,327.987946 249.169724,327.999237 245.794708,328.037628 
	C245.366776,319.604523 245.366776,311.144348 245.366776,302.288239 
	C240.958527,301.469452 236.662903,301.072571 232.639191,299.809479 
	C228.751236,298.588989 224.925705,296.821320 221.479630,294.648621 
	C218.573990,292.816711 217.472031,289.804047 219.922394,286.219543 
	C222.355789,286.674591 224.559723,287.319763 226.729660,288.063995 
	C243.832062,293.930084 260.735840,294.087677 277.391663,286.390533 
	C277.974304,286.121307 278.673584,286.104553 279.704254,285.939453 
	C283.343811,289.308899 282.365784,292.786835 278.926483,294.636169 
	C274.052826,297.256744 268.674835,299.006775 263.392822,300.770874 
	C260.927277,301.594330 258.181213,301.577789 255.090057,302.007690 
	C255.090057,310.494141 255.090057,318.768646 255.076996,327.509888 
z"/>
<path fill="#A8DCD9" opacity="1.000000" stroke="none" 
	d="
M212.041901,185.894089 
	C212.437851,189.573715 212.809433,192.818604 213.227539,196.469849 
	C210.058075,196.855042 207.487747,197.167435 204.465134,197.534775 
	C204.012268,194.279785 203.392944,191.091583 203.153809,187.875107 
	C202.404572,177.797913 201.819305,167.708664 201.123367,157.627335 
	C200.937103,154.928909 201.490067,152.998795 204.742432,153.020004 
	C208.660828,153.045563 212.717697,152.317657 216.471939,153.092194 
	C226.614731,155.184662 229.611664,164.915482 222.813568,172.599258 
	C222.275558,173.207367 221.776077,173.849579 221.031082,174.751480 
	C224.967682,179.752579 228.847061,184.681015 233.117920,190.106766 
	C231.037430,191.926193 228.987442,193.718948 226.646713,195.765945 
	C222.329193,190.455307 217.947083,185.065216 213.564957,179.675125 
	C213.049149,179.888535 212.533325,180.101959 212.017502,180.315369 
	C212.017502,182.030029 212.017502,183.744690 212.041901,185.894089 
M219.854141,162.175644 
	C218.142517,161.016006 216.430878,159.856354 214.719223,158.696701 
	C213.526047,161.010925 211.584595,163.276581 211.430023,165.658218 
	C211.342133,167.012314 214.052505,169.594299 215.721680,169.794083 
	C218.998840,170.186356 220.074829,167.476547 220.002411,164.455200 
	C219.990479,163.957306 219.976349,163.459457 219.854141,162.175644 
z"/>
<path fill="#A8DCD9" opacity="1.000000" stroke="none" 
	d="
M171.324112,190.550552 
	C166.762589,182.733337 166.352127,175.087891 170.837997,167.579727 
	C173.344604,163.384354 177.225952,160.918640 182.350967,161.009399 
	C190.116440,161.146912 191.403076,163.353516 187.861664,170.391235 
	C180.644104,169.785233 177.748688,171.760208 177.013351,177.790878 
	C176.287537,183.743439 181.171722,191.116089 186.416306,191.984589 
	C190.385696,192.641922 192.162247,190.440567 191.605408,185.554703 
	C184.048538,186.838547 183.713821,186.621628 181.987656,178.827377 
	C185.642838,177.308411 189.370941,175.645660 193.196945,174.251617 
	C194.115921,173.916794 195.679886,174.090286 196.398453,174.688812 
	C199.291077,177.098251 201.234924,188.523529 199.657883,192.558716 
	C197.564743,197.914429 192.210831,201.970184 186.621796,201.676315 
	C179.449234,201.299164 174.986221,196.666946 171.324112,190.550552 
z"/>
<path fill="#A8DCD9" opacity="1.000000" stroke="none" 
	d="
M290.866394,185.113342 
	C291.380219,187.113876 291.571289,188.820663 292.249908,190.304459 
	C294.024017,194.183533 292.210754,195.604996 288.697693,196.627350 
	C284.647614,197.805984 284.269531,195.293411 283.714783,192.500183 
	C283.295990,190.391571 282.358887,188.362839 282.121429,186.245956 
	C281.594086,181.545044 279.343658,179.819183 274.272156,181.556534 
	C273.401520,186.941589 272.486786,192.599442 271.444427,199.046799 
	C268.546631,198.736557 265.705902,198.432434 262.249084,198.062347 
	C264.393738,186.077362 266.416870,174.585526 268.532318,163.110687 
	C268.940826,160.894928 269.149292,157.351273 270.423370,156.838486 
	C273.688019,155.524536 277.496796,155.312271 281.096558,155.261139 
	C281.970825,155.248703 283.303192,157.436478 283.700714,158.820557 
	C286.170410,167.420105 288.433929,176.078842 290.866394,185.113342 
z"/>
<path fill="#A7DCD9" opacity="1.000000" stroke="none" 
	d="
M325.845642,165.572754 
	C323.756989,166.951447 321.760376,168.200592 319.587708,168.737732 
	C317.738403,169.194931 315.686371,168.832153 313.314392,168.832153 
	C311.716339,179.568878 310.186401,189.847961 308.523834,201.018021 
	C304.883972,200.638794 301.258392,200.261063 297.253998,199.843857 
	C298.644257,189.461411 299.969360,179.565430 301.350525,169.250778 
	C297.987274,169.009369 295.395203,168.823318 292.397095,168.608109 
	C292.397095,164.913010 292.397095,161.360031 292.397095,157.373245 
	C303.250946,157.373245 314.134460,157.373245 325.861328,157.373245 
	C325.861328,159.954636 325.861328,162.544525 325.845642,165.572754 
z"/>
<path fill="#A8DCD9" opacity="1.000000" stroke="none" 
	d="
M331.646667,170.628693 
	C332.658508,168.922882 333.478271,167.525726 334.594116,165.623978 
	C337.875061,168.601257 340.768127,171.226578 344.011627,174.169876 
	C338.233673,181.033569 332.703217,187.834717 326.828339,194.324005 
	C325.980408,195.260635 323.216400,195.258041 321.838898,194.616638 
	C321.032959,194.241394 320.507874,191.386414 321.072754,190.253326 
	C324.332489,183.714493 327.954987,177.356537 331.646667,170.628693 
z"/>
<path fill="#A8DCD9" opacity="1.000000" stroke="none" 
	d="
M313.118896,200.257309 
	C317.304443,193.612656 318.237701,193.605087 324.109528,200.219208 
	C322.909119,201.234512 321.730591,202.266479 320.513367,203.250595 
	C319.390472,204.158417 318.226135,205.014877 316.389496,206.423676 
	C315.151093,204.289322 314.086090,202.453842 313.118896,200.257309 
z"/>
<path fill="#E28E3B" opacity="1.000000" stroke="none" 
	d="
M187.105728,224.261368 
	C194.125824,221.652237 201.192841,218.755341 208.543442,217.190872 
	C228.343369,212.976746 248.538528,213.163483 268.555328,214.299377 
	C284.161713,215.184982 299.972687,216.660202 314.778015,223.728027 
	C307.487976,226.310486 300.098328,229.241165 292.430023,230.810287 
	C272.314667,234.926346 251.829224,234.700943 231.487823,233.764481 
	C217.203079,233.106857 202.820526,231.417694 189.297180,225.937546 
	C188.562836,225.639938 187.950897,225.040283 187.105728,224.261368 
z"/>
<path fill="#FBC31C" opacity="1.000000" stroke="none" 
	d="
M252.214935,240.999893 
	C265.781738,239.664795 279.349213,238.336426 292.915039,236.991653 
	C299.454102,236.343445 305.983093,235.574982 312.532257,235.059616 
	C314.252136,234.924286 316.030273,235.529907 317.903015,236.491913 
	C314.806091,247.198196 311.205536,257.015381 304.012421,265.024109 
	C290.051819,265.687469 276.091248,266.350830 261.595093,266.664856 
	C265.173370,262.762177 269.287231,259.208771 273.652100,255.438568 
	C271.170563,254.992111 269.186768,254.216446 267.272614,254.361328 
	C257.545197,255.097626 253.387177,249.784958 252.214935,240.999893 
z"/>
<path fill="#FBC31C" opacity="1.000000" stroke="none" 
	d="
M186.190170,247.035736 
	C202.295456,245.394089 218.398346,243.728378 234.507538,242.125916 
	C239.114594,241.667618 243.739868,241.392456 248.720474,241.404556 
	C246.563889,253.477371 236.501953,254.139755 226.337952,256.150085 
	C229.961655,258.508057 232.435394,260.508362 235.228790,261.836121 
	C238.686646,263.479675 239.298660,265.747803 237.881180,268.984863 
	C228.002274,269.631592 218.125107,270.307037 208.243500,270.909515 
	C204.799759,271.119476 201.193588,271.703735 198.289871,267.818909 
	C193.983795,260.558380 190.086990,253.797058 186.190170,247.035736 
z"/>
<path fill="#FAF2E7" opacity="1.000000" stroke="none" 
	d="
M237.916611,269.402832 
	C239.298660,265.747803 238.686646,263.479675 235.228790,261.836121 
	C232.435394,260.508362 229.961655,258.508057 226.337952,256.150085 
	C236.501953,254.139755 246.563889,253.477371 249.169418,241.423340 
	C250.158188,240.873428 251.061691,240.675980 252.090073,240.739212 
	C253.387177,249.784958 257.545197,255.097626 267.272614,254.361328 
	C269.186768,254.216446 271.170563,254.992111 273.652100,255.438568 
	C269.287231,259.208771 265.173370,262.762177 261.142395,266.665344 
	C262.189148,271.266937 263.153046,275.518768 264.447815,281.230164 
	C260.205292,278.535980 257.072083,276.784332 254.215591,274.660461 
	C251.714783,272.801056 249.657867,272.852783 247.114044,274.602203 
	C244.140106,276.647400 240.873932,278.267639 237.366776,280.035706 
	C236.999023,279.999176 236.982254,279.984039 236.982254,279.984039 
	C237.305511,276.596283 237.628784,273.208557 237.916611,269.402832 
z"/>
<path fill="#FFFDFB" opacity="1.000000" stroke="none" 
	d="
M303.875793,265.324036 
	C311.205536,257.015381 314.806091,247.198196 318.154785,236.863586 
	C322.300049,235.942871 326.389191,234.579666 330.309631,234.959091 
	C334.549622,235.369461 336.141174,238.829880 335.322266,243.162811 
	C332.847321,256.258057 316.358887,268.773590 302.390778,267.708038 
	C302.920471,266.889313 303.329803,266.256622 303.875793,265.324036 
z"/>
<path fill="#FFFDFB" opacity="1.000000" stroke="none" 
	d="
M186.059235,246.675568 
	C190.086990,253.797058 193.983795,260.558380 197.968018,267.650940 
	C183.861847,267.137421 173.768585,260.048553 167.534012,247.487198 
	C165.692673,243.777313 164.318787,239.575668 168.362717,236.122543 
	C171.440796,233.494125 178.194916,232.972351 181.352417,236.239883 
	C183.767212,238.738861 184.466141,242.895889 186.059235,246.675568 
z"/>
<path fill="#FAF2E7" opacity="1.000000" stroke="none" 
	d="
M237.006256,280.007263 
	C236.889404,280.017212 236.765350,280.019104 236.811768,280.002502 
	C236.982254,279.984039 236.999023,279.999176 237.006256,280.007263 
z"/>
<path fill="#FFFDFB" opacity="1.000000" stroke="none" 
	d="
M219.908691,162.568619 
	C219.976349,163.459457 219.990479,163.957306 220.002411,164.455200 
	C220.074829,167.476547 218.998840,170.186356 215.721680,169.794083 
	C214.052505,169.594299 211.342133,167.012314 211.430023,165.658218 
	C211.584595,163.276581 213.526047,161.010925 214.719238,158.696701 
	C216.430878,159.856354 218.142517,161.016006 219.908691,162.568619 
z"/>
</svg>