<svg version="1.1" id="Layer_1" xmlns="http://www.w3.org/2000/svg" xmlns:xlink="http://www.w3.org/1999/xlink" x="0px" y="0px"
	 width="100%" viewBox="0 0 500 500" enable-background="new 0 0 500 500" xml:space="preserve">
<path fill="#FFFFFF" opacity="1.000000" stroke="none" 
	d="
M247.000000,501.000000 
	C164.666687,501.000000 82.833374,501.000000 1.000044,501.000000 
	C1.000029,334.333405 1.000029,167.666779 1.000015,1.000133 
	C167.666565,1.000089 334.333130,1.000089 500.999756,1.000044 
	C500.999847,167.666519 500.999847,334.333038 500.999939,500.999786 
	C416.500000,501.000000 332.000000,501.000000 247.000000,501.000000 
M345.968414,281.814911 
	C346.307220,276.363525 346.993469,270.903412 346.856323,265.464020 
	C346.772247,262.129211 345.426270,258.826202 344.685181,255.671692 
	C340.221405,258.430450 343.285156,265.377350 335.969391,266.206635 
	C336.256958,270.900452 336.566620,275.954437 336.268585,280.771790 
	C336.029694,280.559204 335.805634,280.325012 335.544037,280.145508 
	C335.450165,280.081085 335.140594,280.146851 335.140472,280.156097 
	C335.120667,281.593323 334.874847,283.081299 335.158752,284.460052 
	C336.981537,293.311829 330.863190,302.653534 321.912262,304.247192 
	C318.655670,304.827057 315.311310,304.913940 312.071472,304.435486 
	C316.031891,290.767151 318.399445,276.882233 317.088470,262.609009 
	C316.093628,251.778046 318.427673,241.811554 323.919525,232.497559 
	C324.427399,231.636185 324.679169,230.623825 325.049866,229.681564 
	C324.663666,229.262451 324.277496,228.843353 323.891296,228.424240 
	C318.092163,232.202499 312.292999,235.980759 306.544891,239.725769 
	C302.241669,223.667618 291.672791,211.707413 280.343811,200.378220 
	C275.180664,195.214981 271.525543,189.485229 270.871368,182.255081 
	C270.422577,177.294815 270.785370,172.261124 270.785370,166.990646 
	C249.669235,179.614990 242.834885,195.261032 251.119629,217.059662 
	C252.275803,220.101730 253.109253,223.482254 253.103165,226.704224 
	C253.091415,232.927048 246.984680,238.943344 240.676529,239.688934 
	C235.358475,240.317490 230.271317,237.091614 229.142654,230.255905 
	C228.211655,224.617188 228.832367,218.394928 230.231949,212.797974 
	C231.443253,207.953964 234.715561,203.625351 237.501236,198.926407 
	C237.461182,198.695282 237.421143,198.464142 237.381104,198.233032 
	C237.152466,198.392502 236.923828,198.551971 235.963562,198.712326 
	C223.936111,203.820633 213.635605,211.326477 205.571686,221.593628 
	C197.762054,231.536987 195.033493,242.360703 200.178619,254.744308 
	C201.649521,258.284576 201.482178,262.881561 200.799271,266.771637 
	C200.488190,268.543640 197.163376,270.784943 195.081879,270.920959 
	C193.513214,271.023407 190.984390,268.405914 190.249786,266.478210 
	C189.159683,263.617584 189.130356,260.306061 188.924881,257.168457 
	C188.727997,254.161835 188.882370,251.132248 188.882370,246.985443 
	C181.803009,253.411118 179.636322,260.550568 179.112305,268.363983 
	C178.260269,281.067810 181.186478,293.140656 184.545761,305.098541 
	C180.092010,303.605133 175.455414,302.495544 171.245605,300.490051 
	C168.188416,299.033600 167.019897,296.125153 168.609924,292.477936 
	C169.426498,290.604919 169.426697,288.376007 169.795807,286.307922 
	C169.400116,286.209106 169.004410,286.110291 168.608704,286.011475 
	C167.855728,286.679016 167.102753,287.346558 166.187576,288.157867 
	C165.482254,286.506134 164.918610,285.186188 164.707962,284.692902 
	C162.661896,284.372559 161.327530,284.163635 160.524719,284.037933 
	C159.418106,285.477325 158.315308,286.911774 156.558319,289.197144 
	C159.015854,291.887360 162.324280,295.057343 165.098480,298.640839 
	C170.690521,305.864349 177.930771,308.671448 187.202209,308.315155 
	C190.218796,313.277954 192.948563,318.444153 196.300232,323.169281 
	C213.304230,347.141083 247.490189,356.651520 274.754608,345.613068 
	C292.156494,338.567596 302.091705,324.665070 311.126892,309.188049 
	C320.733002,309.516052 329.658691,308.071198 335.173981,298.968842 
	C338.038727,294.240845 340.197266,289.063141 345.743073,286.584961 
	C346.797699,286.113678 347.400543,284.631348 348.337830,283.457764 
	C347.296143,283.123047 346.553284,282.884338 345.968414,281.814911 
M184.373703,227.053329 
	C182.482193,225.869034 180.590698,224.684738 178.435013,223.335022 
	C183.836090,219.792267 191.635254,223.782562 195.093643,216.138962 
	C188.741776,211.688538 182.562790,207.359238 176.052353,202.797714 
	C175.086304,204.619110 174.422607,205.870468 173.622208,207.379562 
	C177.932770,210.290436 181.970963,213.017365 187.145905,216.511948 
	C183.988892,216.855957 182.262146,217.083694 180.528366,217.225143 
	C176.385086,217.563141 172.213303,217.687088 168.109085,218.283356 
	C166.928009,218.454956 165.783936,219.822952 164.959793,220.900177 
	C164.730942,221.199280 165.502869,222.786530 166.167618,223.165619 
	C172.464691,226.756851 178.837830,230.214691 185.336502,233.792099 
	C186.355042,232.168259 187.129105,230.934189 187.986099,229.567871 
	C186.858398,228.781799 185.915176,228.124329 184.373703,227.053329 
M218.402985,181.141541 
	C219.881409,183.345581 221.400192,185.523849 222.828232,187.760086 
	C224.685837,190.668991 226.519196,191.447601 228.537567,187.818405 
	C227.357590,185.923233 226.167572,184.011932 225.073547,182.254807 
	C227.720184,178.458084 230.792465,178.398392 234.476181,179.764420 
	C237.609421,180.926300 241.094635,182.422119 243.841019,177.987930 
	C241.069550,176.963623 238.393341,176.138596 235.875702,174.971527 
	C234.699905,174.426453 233.186249,173.375443 232.923370,172.288330 
	C230.513077,162.320847 225.893753,160.345261 217.035278,165.719101 
	C211.211609,169.251892 211.052933,169.989487 214.796799,175.500443 
	C215.914627,177.145889 216.948639,178.848267 218.402985,181.141541 
M177.329178,249.901901 
	C182.087769,244.461899 182.793274,239.776428 179.566116,235.045792 
	C175.629898,229.275742 167.715698,226.183167 162.122894,228.956665 
	C159.704651,230.155869 157.362366,232.722427 156.318985,235.224014 
	C154.226196,240.241592 156.661163,246.537354 161.099243,249.902267 
	C166.173599,253.749527 171.429138,253.911835 177.329178,249.901901 
M235.104523,159.983292 
	C235.581894,162.725052 235.515961,165.718002 236.644440,168.158737 
	C239.390305,174.097672 246.425034,176.563553 251.748642,173.946167 
	C257.007812,171.360474 258.501007,166.641525 255.427414,159.544983 
	C254.509186,161.826706 254.022690,163.378494 253.281158,164.796982 
	C252.206390,166.852936 251.311798,170.032974 249.679352,170.520584 
	C247.362808,171.212524 244.445084,169.891708 241.784256,169.430969 
	C241.772980,168.845200 241.761703,168.259415 241.750427,167.673630 
	C246.155151,164.310242 250.559891,160.946838 255.029358,157.534012 
	C252.426285,153.054520 249.074814,150.726837 244.229935,151.063812 
	C239.156693,151.416641 236.686249,154.751114 235.104523,159.983292 
M306.893707,187.355774 
	C304.895905,192.078568 302.352905,196.654846 301.034821,201.560272 
	C299.286865,208.065353 301.596405,214.046524 305.087494,220.488342 
	C314.343628,190.385452 314.519562,189.000473 309.908173,181.904861 
	C308.943604,183.604538 308.070709,185.142700 306.893707,187.355774 
M196.538788,200.966812 
	C198.893188,203.751785 201.247604,206.536743 203.864395,209.632095 
	C205.863052,207.495804 206.915894,206.370453 208.005295,205.206039 
	C205.625122,202.667664 202.300293,200.683472 201.936050,198.255173 
	C201.626724,196.192947 205.008606,193.747757 206.203445,191.211151 
	C206.734009,190.084747 205.900970,188.315994 205.686890,186.838821 
	C204.864624,186.519775 204.042343,186.200729 203.220078,185.881683 
	C201.248459,188.732391 199.276855,191.583084 196.786774,195.183441 
	C193.171219,187.691681 201.075500,186.955780 201.556946,182.372452 
	C200.905716,181.756058 200.002823,180.901474 199.292999,180.229614 
	C195.281662,184.103073 191.513474,187.741745 186.607315,192.479279 
	C189.961090,195.317108 193.001068,197.889404 196.538788,200.966812 
M286.376556,191.058594 
	C287.267151,192.021393 288.157745,192.984192 289.338959,194.261169 
	C292.933167,184.491333 293.697998,175.873093 286.626953,167.975632 
	C282.081299,175.555161 280.606140,182.921127 286.376556,191.058594 
M314.331360,326.334564 
	C311.912750,326.741577 309.494141,327.148590 307.974396,327.404327 
	C309.279266,331.684326 310.480560,335.624603 311.929565,340.377319 
	C313.825195,335.245453 318.086273,334.464020 323.266235,334.323334 
	C317.142456,331.765289 319.113190,326.612305 318.817474,321.297150 
	C317.006744,323.362122 315.950531,324.566620 314.331360,326.334564 
M211.941238,188.583420 
	C214.185135,191.164078 216.429016,193.744736 219.536331,197.318420 
	C220.370148,194.849045 221.584518,192.935532 221.123886,192.358017 
	C216.204117,186.189835 211.019119,180.233215 206.080704,174.422958 
	C202.242889,176.195160 202.574234,177.927948 204.645370,180.116074 
	C207.042191,182.648254 209.233795,185.374680 211.941238,188.583420 
M162.151047,261.317200 
	C159.521408,268.664642 161.327820,275.608429 166.957962,279.794891 
	C169.254181,273.904633 167.191513,264.897491 162.151047,261.317200 
M181.746094,333.845764 
	C182.459137,333.649048 183.739090,333.555695 183.796768,333.239441 
	C184.320221,330.369293 184.630249,327.460266 184.909637,325.286804 
	C182.424500,323.784302 179.687363,322.129486 177.403336,320.748596 
	C176.535278,324.206116 175.617477,327.861786 174.899857,330.720123 
	C176.881180,331.532135 179.051224,332.421478 181.746094,333.845764 
M328.125519,264.164673 
	C328.333557,265.332001 328.541595,266.499359 328.889526,268.451599 
	C334.095337,260.509827 330.815491,253.825851 328.508179,247.097137 
	C327.988495,247.121002 327.468781,247.144867 326.949097,247.168732 
	C327.326599,252.555557 327.704071,257.942383 328.125519,264.164673 
M157.033188,280.115112 
	C156.553055,277.183838 156.072922,274.252563 155.592789,271.321289 
	C154.766708,271.421967 153.940643,271.522614 153.114563,271.623260 
	C153.435349,275.844299 153.756149,280.065338 154.076950,284.286377 
	C154.665207,284.303497 155.253464,284.320618 155.841721,284.337738 
	C156.225433,283.194092 156.609131,282.050476 157.033188,280.115112 
z"/>
<path fill="#FD29C0" opacity="1.000000" stroke="none" 
	d="
M185.447586,304.971558 
	C181.186478,293.140656 178.260269,281.067810 179.112305,268.363983 
	C179.636322,260.550568 181.803009,253.411118 188.882370,246.985443 
	C188.882370,251.132248 188.727997,254.161835 188.924881,257.168457 
	C189.130356,260.306061 189.159683,263.617584 190.249786,266.478210 
	C190.984390,268.405914 193.513214,271.023407 195.081879,270.920959 
	C197.163376,270.784943 200.488190,268.543640 200.799271,266.771637 
	C201.482178,262.881561 201.649521,258.284576 200.178619,254.744308 
	C195.033493,242.360703 197.762054,231.536987 205.571686,221.593628 
	C213.635605,211.326477 223.936111,203.820633 236.424927,198.801117 
	C236.886276,198.889908 237.076874,199.068924 237.076874,199.068924 
	C234.715561,203.625351 231.443253,207.953964 230.231949,212.797974 
	C228.832367,218.394928 228.211655,224.617188 229.142654,230.255905 
	C230.271317,237.091614 235.358475,240.317490 240.676529,239.688934 
	C246.984680,238.943344 253.091415,232.927048 253.103165,226.704224 
	C253.109253,223.482254 252.275803,220.101730 251.119629,217.059662 
	C242.834885,195.261032 249.669235,179.614990 270.785370,166.990646 
	C270.785370,172.261124 270.422577,177.294815 270.871368,182.255081 
	C271.525543,189.485229 275.180664,195.214981 280.343811,200.378220 
	C291.672791,211.707413 302.241669,223.667618 306.544891,239.725769 
	C312.292999,235.980759 318.092163,232.202499 323.891296,228.424240 
	C324.277496,228.843353 324.663666,229.262451 325.049866,229.681564 
	C324.679169,230.623825 324.427399,231.636185 323.919525,232.497559 
	C318.427673,241.811554 316.093628,251.778046 317.088470,262.609009 
	C318.399445,276.882233 316.031891,290.767151 311.933167,305.073578 
	C311.301239,306.781067 310.807678,307.850494 310.314117,308.919891 
	C302.091705,324.665070 292.156494,338.567596 274.754608,345.613068 
	C247.490189,356.651520 213.304230,347.141083 196.300232,323.169281 
	C192.948563,318.444153 190.218796,313.277954 186.901886,307.762909 
	C186.216904,306.464294 185.832245,305.717926 185.447586,304.971558 
M233.449554,317.545593 
	C240.173096,325.459839 251.889343,327.502319 262.080719,322.536865 
	C269.134369,319.100159 273.312195,311.289246 272.048706,305.427307 
	C258.103516,306.102814 244.341019,306.769470 230.085373,307.459991 
	C230.667435,309.278473 231.490723,311.850586 232.325592,314.996246 
	C232.675888,315.628235 233.026199,316.260193 233.449554,317.545593 
M241.602173,281.315369 
	C237.531723,271.565063 231.106461,266.991699 223.400131,268.359467 
	C215.450684,269.770386 209.891708,276.397797 209.883286,284.474274 
	C209.875702,291.742462 214.947952,297.730469 222.299698,299.132355 
	C230.601822,300.715454 237.607330,296.874817 240.629379,289.131683 
	C241.082962,287.969482 241.643585,285.982666 242.313995,285.913086 
	C246.424927,285.486633 250.623413,285.133667 254.698013,285.594208 
	C255.929520,285.733429 256.925537,288.495728 257.916901,290.124969 
	C261.935455,296.729126 271.419067,299.410248 278.586395,295.926819 
	C285.748291,292.446075 288.984436,283.795502 286.079803,275.896271 
	C283.208344,268.087219 275.888702,264.630890 267.549500,266.700531 
	C259.591431,268.675537 256.465485,274.475098 254.948700,281.751343 
	C250.605942,281.751343 246.466599,281.751343 241.602173,281.315369 
M288.390198,300.823425 
	C286.926147,301.925995 285.413879,302.977997 284.096466,304.234344 
	C283.998962,304.327332 285.123840,306.173004 285.987000,306.720520 
	C289.633759,309.033600 295.730957,307.852173 298.802612,304.405029 
	C296.182251,300.748138 294.470398,300.072205 288.390198,300.823425 
M216.160767,309.908295 
	C216.965607,308.788330 217.770432,307.668365 218.575256,306.548370 
	C217.250809,305.714294 215.918640,304.175934 214.603531,304.190399 
	C211.726517,304.221985 208.796921,304.835602 206.022110,305.660034 
	C205.143463,305.921173 204.073364,307.697540 204.211655,308.610748 
	C204.348206,309.512634 205.886200,310.838287 206.837021,310.861816 
	C209.706207,310.932861 212.588837,310.461273 216.160767,309.908295 
M297.414429,273.854706 
	C298.346100,272.171631 299.277771,270.488556 300.209442,268.805511 
	C300.453766,269.284912 300.698090,269.764313 300.942413,270.243713 
	C299.579926,267.899200 298.217468,265.554688 297.034668,263.519379 
	C294.930389,265.357635 292.786438,267.230560 290.928986,268.853149 
	C292.490143,271.354797 294.094574,273.925812 295.815613,276.683685 
	C296.283417,275.891571 296.696106,275.192749 297.414429,273.854706 
z"/>
<path fill="#8666F3" opacity="1.000000" stroke="none" 
	d="
M184.672821,227.260086 
	C185.915176,228.124329 186.858398,228.781799 187.986099,229.567871 
	C187.129105,230.934189 186.355042,232.168259 185.336502,233.792099 
	C178.837830,230.214691 172.464691,226.756851 166.167618,223.165619 
	C165.502869,222.786530 164.730942,221.199280 164.959793,220.900177 
	C165.783936,219.822952 166.928009,218.454956 168.109085,218.283356 
	C172.213303,217.687088 176.385086,217.563141 180.528366,217.225143 
	C182.262146,217.083694 183.988892,216.855957 187.145905,216.511948 
	C181.970963,213.017365 177.932770,210.290436 173.622208,207.379562 
	C174.422607,205.870468 175.086304,204.619110 176.052353,202.797714 
	C182.562790,207.359238 188.741776,211.688538 195.093643,216.138962 
	C191.635254,223.782562 183.836090,219.792267 178.435013,223.335022 
	C180.590698,224.684738 182.482193,225.869034 184.672821,227.260086 
z"/>
<path fill="#8666F3" opacity="1.000000" stroke="none" 
	d="
M218.212021,180.833038 
	C216.948639,178.848267 215.914627,177.145889 214.796799,175.500443 
	C211.052933,169.989487 211.211609,169.251892 217.035278,165.719101 
	C225.893753,160.345261 230.513077,162.320847 232.923370,172.288330 
	C233.186249,173.375443 234.699905,174.426453 235.875702,174.971527 
	C238.393341,176.138596 241.069550,176.963623 243.841019,177.987930 
	C241.094635,182.422119 237.609421,180.926300 234.476181,179.764420 
	C230.792465,178.398392 227.720184,178.458084 225.073547,182.254807 
	C226.167572,184.011932 227.357590,185.923233 228.537567,187.818405 
	C226.519196,191.447601 224.685837,190.668991 222.828232,187.760086 
	C221.400192,185.523849 219.881409,183.345581 218.212021,180.833038 
M222.354126,177.685913 
	C225.020432,175.446335 230.100128,174.521576 227.868134,169.409164 
	C226.566803,166.428421 222.354645,167.396698 217.483551,171.723907 
	C218.851517,173.649841 220.258301,175.630432 222.354126,177.685913 
z"/>
<path fill="#8666F3" opacity="1.000000" stroke="none" 
	d="
M177.040634,250.143799 
	C171.429138,253.911835 166.173599,253.749527 161.099243,249.902267 
	C156.661163,246.537354 154.226196,240.241592 156.318985,235.224014 
	C157.362366,232.722427 159.704651,230.155869 162.122894,228.956665 
	C167.715698,226.183167 175.629898,229.275742 179.566116,235.045792 
	C182.793274,239.776428 182.087769,244.461899 177.040634,250.143799 
M164.302689,246.440201 
	C169.941864,249.302353 174.064575,248.404205 175.985275,243.895615 
	C177.826233,239.574173 176.020126,236.311539 172.470139,234.200745 
	C169.220642,232.268616 165.338425,230.566986 161.980392,233.871399 
	C158.728104,237.071777 159.579971,240.781113 161.933426,244.233582 
	C162.388809,244.901611 163.083771,245.406296 164.302689,246.440201 
z"/>
<path fill="#8666F3" opacity="1.000000" stroke="none" 
	d="
M235.178284,159.582550 
	C236.686249,154.751114 239.156693,151.416641 244.229935,151.063812 
	C249.074814,150.726837 252.426285,153.054520 255.029358,157.534012 
	C250.559891,160.946838 246.155151,164.310242 241.750427,167.673630 
	C241.761703,168.259415 241.772980,168.845200 241.784256,169.430969 
	C244.445084,169.891708 247.362808,171.212524 249.679352,170.520584 
	C251.311798,170.032974 252.206390,166.852936 253.281158,164.796982 
	C254.022690,163.378494 254.509186,161.826706 255.427414,159.544983 
	C258.501007,166.641525 257.007812,171.360474 251.748642,173.946167 
	C246.425034,176.563553 239.390305,174.097672 236.644440,168.158737 
	C235.515961,165.718002 235.581894,162.725052 235.178284,159.582550 
M247.004669,158.621948 
	C249.262817,157.192047 248.660004,155.748764 246.513000,155.557755 
	C244.795761,155.404999 242.421585,156.005859 241.325867,157.187424 
	C239.976349,158.642670 239.650650,161.047333 238.882462,163.041672 
	C239.342010,163.258957 239.801559,163.476242 240.261093,163.693527 
	C242.325500,162.143280 244.389908,160.593018 247.004669,158.621948 
z"/>
<path fill="#FE30C2" opacity="1.000000" stroke="none" 
	d="
M307.045746,187.018311 
	C308.070709,185.142700 308.943604,183.604538 309.908173,181.904861 
	C314.519562,189.000473 314.343628,190.385452 305.087494,220.488342 
	C301.596405,214.046524 299.286865,208.065353 301.034821,201.560272 
	C302.352905,196.654846 304.895905,192.078568 307.045746,187.018311 
z"/>
<path fill="#8666F3" opacity="1.000000" stroke="none" 
	d="
M196.289917,200.714264 
	C193.001068,197.889404 189.961090,195.317108 186.607315,192.479279 
	C191.513474,187.741745 195.281662,184.103073 199.292999,180.229614 
	C200.002823,180.901474 200.905716,181.756058 201.556946,182.372452 
	C201.075500,186.955780 193.171219,187.691681 196.786774,195.183441 
	C199.276855,191.583084 201.248459,188.732391 203.220078,185.881683 
	C204.042343,186.200729 204.864624,186.519775 205.686890,186.838821 
	C205.900970,188.315994 206.734009,190.084747 206.203445,191.211151 
	C205.008606,193.747757 201.626724,196.192947 201.936050,198.255173 
	C202.300293,200.683472 205.625122,202.667664 208.005295,205.206039 
	C206.915894,206.370453 205.863052,207.495804 203.864395,209.632095 
	C201.247604,206.536743 198.893188,203.751785 196.289917,200.714264 
z"/>
<path fill="#FE30C2" opacity="1.000000" stroke="none" 
	d="
M336.876251,281.008453 
	C336.566620,275.954437 336.256958,270.900452 335.969391,266.206635 
	C343.285156,265.377350 340.221405,258.430450 344.685181,255.671692 
	C345.426270,258.826202 346.772247,262.129211 346.856323,265.464020 
	C346.993469,270.903412 346.307220,276.363525 345.534180,282.325256 
	C344.352570,283.806335 343.605164,284.777069 342.653168,286.013580 
	C340.414246,284.073761 338.645264,282.541107 336.876251,281.008453 
z"/>
<path fill="#121212" opacity="1.000000" stroke="none" 
	d="
M336.572418,280.890137 
	C338.645264,282.541107 340.414246,284.073761 342.653168,286.013580 
	C343.605164,284.777069 344.352570,283.806335 345.455170,282.740601 
	C346.553284,282.884338 347.296143,283.123047 348.337830,283.457764 
	C347.400543,284.631348 346.797699,286.113678 345.743073,286.584961 
	C340.197266,289.063141 338.038727,294.240845 335.173981,298.968842 
	C329.658691,308.071198 320.733002,309.516052 310.720520,309.053955 
	C310.807678,307.850494 311.301239,306.781067 311.900909,305.468719 
	C315.311310,304.913940 318.655670,304.827057 321.912262,304.247192 
	C330.863190,302.653534 336.981537,293.311829 335.158752,284.460052 
	C334.874847,283.081299 335.120667,281.593323 335.140472,280.156097 
	C335.140594,280.146851 335.450165,280.081085 335.544037,280.145508 
	C335.805634,280.325012 336.029694,280.559204 336.572418,280.890137 
z"/>
<path fill="#121212" opacity="1.000000" stroke="none" 
	d="
M184.996674,305.035034 
	C185.832245,305.717926 186.216904,306.464294 186.723465,307.437622 
	C177.930771,308.671448 170.690521,305.864349 165.098480,298.640839 
	C162.324280,295.057343 159.015854,291.887360 156.558319,289.197144 
	C158.315308,286.911774 159.418106,285.477325 160.524719,284.037933 
	C161.327530,284.163635 162.661896,284.372559 164.707962,284.692902 
	C164.918610,285.186188 165.482254,286.506134 166.187576,288.157867 
	C167.102753,287.346558 167.855728,286.679016 168.608704,286.011475 
	C169.004410,286.110291 169.400116,286.209106 169.795807,286.307922 
	C169.426697,288.376007 169.426498,290.604919 168.609924,292.477936 
	C167.019897,296.125153 168.188416,299.033600 171.245605,300.490051 
	C175.455414,302.495544 180.092010,303.605133 184.996674,305.035034 
z"/>
<path fill="#FE30C2" opacity="1.000000" stroke="none" 
	d="
M286.186646,190.743988 
	C280.606140,182.921127 282.081299,175.555161 286.626953,167.975632 
	C293.697998,175.873093 292.933167,184.491333 289.338959,194.261169 
	C288.157745,192.984192 287.267151,192.021393 286.186646,190.743988 
z"/>
<path fill="#FDB12B" opacity="1.000000" stroke="none" 
	d="
M314.612854,326.052856 
	C315.950531,324.566620 317.006744,323.362122 318.817474,321.297150 
	C319.113190,326.612305 317.142456,331.765289 323.266235,334.323334 
	C318.086273,334.464020 313.825195,335.245453 311.929565,340.377319 
	C310.480560,335.624603 309.279266,331.684326 307.974396,327.404327 
	C309.494141,327.148590 311.912750,326.741577 314.612854,326.052856 
z"/>
<path fill="#8666F3" opacity="1.000000" stroke="none" 
	d="
M211.727875,188.300095 
	C209.233795,185.374680 207.042191,182.648254 204.645370,180.116074 
	C202.574234,177.927948 202.242889,176.195160 206.080704,174.422958 
	C211.019119,180.233215 216.204117,186.189835 221.123886,192.358017 
	C221.584518,192.935532 220.370148,194.849045 219.536331,197.318420 
	C216.429016,193.744736 214.185135,191.164078 211.727875,188.300095 
z"/>
<path fill="#FE30C2" opacity="1.000000" stroke="none" 
	d="
M162.377487,261.049500 
	C167.191513,264.897491 169.254181,273.904633 166.957962,279.794891 
	C161.327820,275.608429 159.521408,268.664642 162.377487,261.049500 
z"/>
<path fill="#FDB12B" opacity="1.000000" stroke="none" 
	d="
M181.483673,333.578308 
	C179.051224,332.421478 176.881180,331.532135 174.899857,330.720123 
	C175.617477,327.861786 176.535278,324.206116 177.403336,320.748596 
	C179.687363,322.129486 182.424500,323.784302 184.909637,325.286804 
	C184.630249,327.460266 184.320221,330.369293 183.796768,333.239441 
	C183.739090,333.555695 182.459137,333.649048 181.483673,333.578308 
z"/>
<path fill="#FE30C2" opacity="1.000000" stroke="none" 
	d="
M328.103546,263.746948 
	C327.704071,257.942383 327.326599,252.555557 326.949097,247.168732 
	C327.468781,247.144867 327.988495,247.121002 328.508179,247.097137 
	C330.815491,253.825851 334.095337,260.509827 328.889526,268.451599 
	C328.541595,266.499359 328.333557,265.332001 328.103546,263.746948 
z"/>
<path fill="#FE30C2" opacity="1.000000" stroke="none" 
	d="
M157.013016,280.510986 
	C156.609131,282.050476 156.225433,283.194092 155.841721,284.337738 
	C155.253464,284.320618 154.665207,284.303497 154.076950,284.286377 
	C153.756149,280.065338 153.435349,275.844299 153.114563,271.623260 
	C153.940643,271.522614 154.766708,271.421967 155.592789,271.321289 
	C156.072922,274.252563 156.553055,277.183838 157.013016,280.510986 
z"/>
<path fill="#FD29C0" opacity="1.000000" stroke="none" 
	d="
M236.790741,198.800674 
	C236.923828,198.551971 237.152466,198.392502 237.381104,198.233032 
	C237.421143,198.464142 237.461182,198.695282 237.289062,198.997665 
	C237.076874,199.068924 236.886276,198.889908 236.790741,198.800674 
z"/>
<path fill="#050104" opacity="1.000000" stroke="none" 
	d="
M241.964722,281.533356 
	C246.466599,281.751343 250.605942,281.751343 254.948700,281.751343 
	C256.465485,274.475098 259.591431,268.675537 267.549500,266.700531 
	C275.888702,264.630890 283.208344,268.087219 286.079803,275.896271 
	C288.984436,283.795502 285.748291,292.446075 278.586395,295.926819 
	C271.419067,299.410248 261.935455,296.729126 257.916901,290.124969 
	C256.925537,288.495728 255.929520,285.733429 254.698013,285.594208 
	C250.623413,285.133667 246.424927,285.486633 242.313995,285.913086 
	C241.643585,285.982666 241.082962,287.969482 240.629379,289.131683 
	C237.607330,296.874817 230.601822,300.715454 222.299698,299.132355 
	C214.947952,297.730469 209.875702,291.742462 209.883286,284.474274 
	C209.891708,276.397797 215.450684,269.770386 223.400131,268.359467 
	C231.106461,266.991699 237.531723,271.565063 241.964722,281.533356 
M261.176422,274.748779 
	C260.449402,276.534729 259.722382,278.320679 258.995361,280.106628 
	C259.749207,280.472504 260.503021,280.838348 261.256866,281.204193 
	C262.784546,278.800110 264.312225,276.396057 265.839935,273.991974 
	C265.398895,273.624939 264.957886,273.257904 264.516846,272.890869 
	C263.570587,273.345154 262.624359,273.799408 261.176422,274.748779 
M213.779129,279.799744 
	C214.448944,280.601196 215.558472,282.179749 215.722366,282.087006 
	C218.022125,280.785767 219.947632,279.168335 216.108246,274.317139 
	C215.397156,275.923584 214.686081,277.529999 213.779129,279.799744 
z"/>
<path fill="#FEF7FC" opacity="1.000000" stroke="none" 
	d="
M232.313995,314.422699 
	C231.490723,311.850586 230.667435,309.278473 230.085373,307.459991 
	C244.341019,306.769470 258.103516,306.102814 272.048706,305.427307 
	C273.312195,311.289246 269.134369,319.100159 262.080719,322.536865 
	C251.889343,327.502319 240.173096,325.459839 233.815125,317.171722 
	C244.950043,318.198761 255.593964,318.329254 267.136200,314.422699 
	C254.610519,314.422699 243.462265,314.422699 232.313995,314.422699 
z"/>
<path fill="#8666F3" opacity="1.000000" stroke="none" 
	d="
M288.764709,300.706421 
	C294.470398,300.072205 296.182251,300.748138 298.802612,304.405029 
	C295.730957,307.852173 289.633759,309.033600 285.987000,306.720520 
	C285.123840,306.173004 283.998962,304.327332 284.096466,304.234344 
	C285.413879,302.977997 286.926147,301.925995 288.764709,300.706421 
z"/>
<path fill="#8666F3" opacity="1.000000" stroke="none" 
	d="
M215.813492,310.054779 
	C212.588837,310.461273 209.706207,310.932861 206.837021,310.861816 
	C205.886200,310.838287 204.348206,309.512634 204.211655,308.610748 
	C204.073364,307.697540 205.143463,305.921173 206.022110,305.660034 
	C208.796921,304.835602 211.726517,304.221985 214.603531,304.190399 
	C215.918640,304.175934 217.250809,305.714294 218.575256,306.548370 
	C217.770432,307.668365 216.965607,308.788330 215.813492,310.054779 
z"/>
<path fill="#121212" opacity="1.000000" stroke="none" 
	d="
M232.319794,314.709473 
	C243.462265,314.422699 254.610519,314.422699 267.136200,314.422699 
	C255.593964,318.329254 244.950043,318.198761 233.778595,316.845032 
	C233.026199,316.260193 232.675888,315.628235 232.319794,314.709473 
z"/>
<path fill="#FDB12B" opacity="1.000000" stroke="none" 
	d="
M297.261627,274.174316 
	C296.696106,275.192749 296.283417,275.891571 295.815613,276.683685 
	C294.094574,273.925812 292.490143,271.354797 290.928986,268.853149 
	C292.786438,267.230560 294.930389,265.357635 297.034668,263.519379 
	C298.217468,265.554688 299.579926,267.899200 300.942413,270.243713 
	C300.698090,269.764313 300.453766,269.284912 300.209442,268.805511 
	C299.277771,270.488556 298.346100,272.171631 297.261627,274.174316 
z"/>
<path fill="#FEF7FC" opacity="1.000000" stroke="none" 
	d="
M222.009613,177.648468 
	C220.258301,175.630432 218.851517,173.649841 217.483551,171.723907 
	C222.354645,167.396698 226.566803,166.428421 227.868134,169.409164 
	C230.100128,174.521576 225.020432,175.446335 222.009613,177.648468 
z"/>
<path fill="#FEF7FC" opacity="1.000000" stroke="none" 
	d="
M163.985458,246.213257 
	C163.083771,245.406296 162.388809,244.901611 161.933426,244.233582 
	C159.579971,240.781113 158.728104,237.071777 161.980392,233.871399 
	C165.338425,230.566986 169.220642,232.268616 172.470139,234.200745 
	C176.020126,236.311539 177.826233,239.574173 175.985275,243.895615 
	C174.064575,248.404205 169.941864,249.302353 163.985458,246.213257 
z"/>
<path fill="#FEF7FC" opacity="1.000000" stroke="none" 
	d="
M246.729492,158.832352 
	C244.389908,160.593018 242.325500,162.143280 240.261093,163.693527 
	C239.801559,163.476242 239.342010,163.258957 238.882462,163.041672 
	C239.650650,161.047333 239.976349,158.642670 241.325867,157.187424 
	C242.421585,156.005859 244.795761,155.404999 246.513000,155.557755 
	C248.660004,155.748764 249.262817,157.192047 246.729492,158.832352 
z"/>
<path fill="#FEF7FC" opacity="1.000000" stroke="none" 
	d="
M261.427246,274.501221 
	C262.624359,273.799408 263.570587,273.345154 264.516846,272.890869 
	C264.957886,273.257904 265.398895,273.624939 265.839935,273.991974 
	C264.312225,276.396057 262.784546,278.800110 261.256866,281.204193 
	C260.503021,280.838348 259.749207,280.472504 258.995361,280.106628 
	C259.722382,278.320679 260.449402,276.534729 261.427246,274.501221 
z"/>
<path fill="#FEF7FC" opacity="1.000000" stroke="none" 
	d="
M213.877060,279.468079 
	C214.686081,277.529999 215.397156,275.923584 216.108246,274.317139 
	C219.947632,279.168335 218.022125,280.785767 215.722366,282.087006 
	C215.558472,282.179749 214.448944,280.601196 213.877060,279.468079 
z"/>
</svg>